<?xml version="1.0" encoding="utf-8"?>
<!-- Generator: Adobe Illustrator 24.2.3, SVG Export Plug-In . SVG Version: 6.00 Build 0)  -->
<svg version="1.1" xmlns="http://www.w3.org/2000/svg" xmlns:xlink="http://www.w3.org/1999/xlink" x="0px" y="0px"
	 viewBox="0 0 500 500" style="enable-background:new 0 0 500 500;" xml:space="preserve">
<style type="text/css">
	.st0{clip-path:url(#SVGID_2_);fill:#FFFFFF;}
	.st1{opacity:0.38;fill:#C9CDCF;}
	.st2{fill:url(#SVGID_3_);}
	.st3{fill:#BFC3CE;}
	.st4{opacity:0.7;fill:url(#SVGID_4_);}
	.st5{fill:#FFFFFF;}
	.st6{fill:url(#SVGID_5_);}
	.st7{fill:url(#SVGID_6_);}
	.st8{fill:url(#SVGID_7_);}
	.st9{fill:url(#SVGID_8_);}
	.st10{fill:url(#SVGID_9_);}
	.st11{fill:url(#SVGID_10_);}
	.st12{fill:#A6AEBA;}
	.st13{fill:#D2DCEB;}
	.st14{fill:url(#SVGID_11_);}
	.st15{fill:url(#SVGID_12_);}
	.st16{fill:url(#SVGID_13_);}
	.st17{fill:url(#SVGID_14_);}
	.st18{fill:#FEC4AD;}
	.st19{fill:#613531;}
	.st20{fill:url(#SVGID_15_);}
	.st21{fill:url(#SVGID_16_);}
	.st22{fill:url(#SVGID_17_);}
	.st23{fill:url(#SVGID_18_);}
	.st24{fill:url(#SVGID_19_);}
	.st25{fill:url(#SVGID_20_);}
	.st26{fill:url(#SVGID_21_);}
	.st27{fill:url(#SVGID_22_);}
	.st28{fill:url(#SVGID_23_);}
	.st29{fill:url(#SVGID_24_);}
	.st30{fill:url(#SVGID_25_);}
	.st31{fill:url(#SVGID_26_);}
	.st32{fill:url(#SVGID_27_);}
	.st33{fill:url(#SVGID_28_);}
	.st34{fill:url(#SVGID_29_);}
	.st35{fill:url(#SVGID_30_);}
	.st36{fill:url(#SVGID_31_);}
	.st37{fill:url(#SVGID_32_);}
	.st38{fill:url(#SVGID_33_);}
	.st39{fill:none;stroke:#C9CDCF;stroke-width:2;stroke-miterlimit:10;}
	.st40{fill:#C9CDCF;}
	.st41{fill:none;stroke:#C9CDCF;stroke-width:1.1673;stroke-miterlimit:10;}
	.st42{fill:none;stroke:#C9CDCF;stroke-width:1.2086;stroke-miterlimit:10;}
	.st43{fill:none;stroke:#C9CDCF;stroke-width:1.2086;stroke-miterlimit:10;stroke-dasharray:4.3253,4.3253;}
	.st44{fill:none;stroke:#C9CDCF;stroke-width:1.2086;stroke-miterlimit:10;stroke-dasharray:4.67,4.67;}
	.st45{fill:none;stroke:#C9CDCF;stroke-width:1.2086;stroke-miterlimit:10;stroke-dasharray:4.301,4.301;}
	.st46{fill:none;stroke:#C9CDCF;stroke-miterlimit:10;}
	.st47{opacity:0.5;}
	.st48{opacity:0.5;fill:#B0AED4;}
	.st49{fill:#E80000;}
	.st50{fill:url(#SVGID_34_);}
	.st51{fill:url(#SVGID_35_);}
	.st52{clip-path:url(#SVGID_37_);fill:url(#SVGID_38_);}
	.st53{fill:url(#SVGID_39_);}
	.st54{fill:#939393;}
	.st55{fill:none;stroke:#E80000;stroke-miterlimit:10;}
	.st56{font-family:'News701BT-ItalicA';}
	.st57{font-size:8px;}
</style>
<g id="BACKGROUND">
	<g>
		<defs>
			<rect id="SVGID_1_" width="500" height="500"/>
		</defs>
		<clipPath id="SVGID_2_">
			<use xlink:href="#SVGID_1_"  style="overflow:visible;"/>
		</clipPath>
		<rect class="st0" width="500" height="500"/>
	</g>
</g>
<g id="OBJECTS">
	<path class="st1" d="M322.4,388.4c22.6-1.1,44.5-2.1,70.3-1.1c7.9,0.3,16.7,0.8,26.9,2.1c10.8,1.4,24.4,3.9,35.5,7.1
		c19.1,5.5,24.8,11.2,16.7,13.4c-8.7,2.4-27.9,1.4-45.4,0.7c-106.7-3.8-213.3,9.1-339.8,13.4c-27.5,0.9-110.6,1.7-7.7-18.2
		c52.2-10.1,82.3-10.4,112.7-11.6C238.8,392.5,282.4,390.2,322.4,388.4z"/>
	<g>
		<g>
			<g>
				<linearGradient id="SVGID_3_" gradientUnits="userSpaceOnUse" x1="240.235" y1="407.8611" x2="245.307" y2="142.0899">
					<stop  offset="0" style="stop-color:#2E303D"/>
					<stop  offset="1" style="stop-color:#72778A"/>
				</linearGradient>
				<path class="st2" d="M384.6,372.4H101.4c-4.4,0-7.9-3.5-7.9-7.9V161.5c0-4.4,3.5-7.9,7.9-7.9h283.2c4.4,0,7.9,3.5,7.9,7.9v202.9
					C392.5,368.8,389,372.4,384.6,372.4z"/>
				<path class="st3" d="M384.6,372.4H101.4c-4.4,0-7.9-3.5-7.9-7.9V331h299.1v33.4C392.5,368.8,389,372.4,384.6,372.4z"/>
				
					<radialGradient id="SVGID_4_" cx="218.0632" cy="317.0641" r="187.5492" gradientTransform="matrix(1 0 0 0.237 0 241.9339)" gradientUnits="userSpaceOnUse">
					<stop  offset="0" style="stop-color:#FFFFFF"/>
					<stop  offset="1" style="stop-color:#FFFFFF;stop-opacity:0"/>
				</radialGradient>
				<path class="st4" d="M384.6,372.4H101.4c-4.4,0-7.9-3.5-7.9-7.9V331h299.1v33.4C392.5,368.8,389,372.4,384.6,372.4z"/>
				
					<rect x="164.3" y="103.6" transform="matrix(-1.836970e-16 1 -1 -1.836970e-16 485.7023 -0.2989)" class="st5" width="157.4" height="278.3"/>
			</g>
			<path class="st3" d="M209.3,372.4c-2.8,12-6.8,21.6-6.8,21.6h81.1c0,0-4.1-9.6-6.8-21.6H209.3z"/>
			<linearGradient id="SVGID_5_" gradientUnits="userSpaceOnUse" x1="243.5637" y1="370.2787" x2="242.883" y2="398.8679">
				<stop  offset="0" style="stop-color:#75769A"/>
				<stop  offset="1" style="stop-color:#FFFFFF;stop-opacity:0"/>
			</linearGradient>
			<path class="st6" d="M209.3,372.4c-2.8,12-6.8,21.6-6.8,21.6h81.1c0,0-4.1-9.6-6.8-21.6H209.3z"/>
			<linearGradient id="SVGID_6_" gradientUnits="userSpaceOnUse" x1="242.8589" y1="407.9112" x2="247.9309" y2="142.1432">
				<stop  offset="0" style="stop-color:#2E303D"/>
				<stop  offset="1" style="stop-color:#72778A"/>
			</linearGradient>
			<path class="st7" d="M292.8,394h-99.6c-3.6,0-6.6,3-6.6,6.6l0,0h112.8l0,0C299.4,396.9,296.5,394,292.8,394z"/>
		</g>
	</g>
	<g>
		<g>
			<linearGradient id="SVGID_7_" gradientUnits="userSpaceOnUse" x1="103.6609" y1="349.3798" x2="110.416" y2="349.3798">
				<stop  offset="0" style="stop-color:#72778A"/>
				<stop  offset="1" style="stop-color:#2E303D"/>
			</linearGradient>
			<polygon class="st8" points="105.6,360.3 103.7,360.3 108.5,338.5 110.4,338.5 			"/>
			<linearGradient id="SVGID_8_" gradientUnits="userSpaceOnUse" x1="102.6609" y1="349.3798" x2="109.416" y2="349.3798">
				<stop  offset="0" style="stop-color:#72778A"/>
				<stop  offset="1" style="stop-color:#2E303D"/>
			</linearGradient>
			<polygon class="st9" points="104.6,360.3 102.7,360.3 107.5,338.5 109.4,338.5 			"/>
			<linearGradient id="SVGID_9_" gradientUnits="userSpaceOnUse" x1="107.8858" y1="338.4695" x2="114.7164" y2="338.4695">
				<stop  offset="0" style="stop-color:#F32A30"/>
				<stop  offset="1" style="stop-color:#FC7651"/>
			</linearGradient>
			<polygon class="st10" points="107.9,340 114.7,340 114.7,336.9 107.9,336.9 			"/>
			<linearGradient id="SVGID_10_" gradientUnits="userSpaceOnUse" x1="82.2149" y1="338.4695" x2="107.8858" y2="338.4695">
				<stop  offset="0" style="stop-color:#F32A30"/>
				<stop  offset="1" style="stop-color:#FC7651"/>
			</linearGradient>
			<rect x="82.2" y="336.9" class="st11" width="25.7" height="3.1"/>
		</g>
		<g>
			<g>
				<g>
					<g>
						
							<rect x="76.2" y="378.6" transform="matrix(-1 -1.224647e-16 1.224647e-16 -1 155.4999 787.4975)" class="st12" width="3.1" height="30.2"/>
						
							<rect x="75.2" y="374.2" transform="matrix(-1 -1.224647e-16 1.224647e-16 -1 155.4999 752.8959)" class="st13" width="5" height="4.4"/>
						
							<rect x="75.9" y="397.2" transform="matrix(-1 -1.224647e-16 1.224647e-16 -1 155.4997 803.8787)" class="st13" width="3.8" height="9.4"/>
						
							<rect x="75.2" y="406.7" transform="matrix(-1 -1.224647e-16 1.224647e-16 -1 155.4999 817.7019)" class="st13" width="5" height="4.4"/>
						
							<rect x="71.7" y="365.9" transform="matrix(-1 -1.224647e-16 1.224647e-16 -1 155.4998 740.1742)" class="st12" width="12.1" height="8.3"/>
						<path class="st12" d="M62.1,369.7h32.6c0.4,0,0.6-0.3,0.6-0.6v-4.9c0-0.4-0.3-0.6-0.6-0.6H62.1c-0.4,0-0.6,0.3-0.6,0.6v4.9
							C61.4,369.4,61.7,369.7,62.1,369.7z"/>
						<polygon class="st12" points="65.7,415.3 75.2,410.5 75.2,407.2 64.4,414.5 						"/>
						<path class="st12" d="M62.2,416.2c0,1.2,1,2.2,2.2,2.2c1.2,0,2.2-1,2.2-2.2c0-1.2-1-2.2-2.2-2.2
							C63.2,413.9,62.2,414.9,62.2,416.2z"/>
						<path class="st12" d="M75.5,416.2c0,1.2,1,2.2,2.2,2.2s2.2-1,2.2-2.2c0-1.2-1-2.2-2.2-2.2S75.5,414.9,75.5,416.2z"/>
						<polygon class="st12" points="89.8,415.3 80.3,410.5 80.3,407.2 91.1,414.5 						"/>
						<path class="st12" d="M93.3,416.2c0,1.2-1,2.2-2.2,2.2c-1.2,0-2.2-1-2.2-2.2c0-1.2,1-2.2,2.2-2.2
							C92.3,413.9,93.3,414.9,93.3,416.2z"/>
						
							<rect x="77.1" y="408.9" transform="matrix(-1 -1.224647e-16 1.224647e-16 -1 155.4999 825.003)" class="st12" width="1.2" height="7.3"/>
					</g>
				</g>
				<linearGradient id="SVGID_11_" gradientUnits="userSpaceOnUse" x1="46.0765" y1="332.8705" x2="98.4657" y2="332.8705">
					<stop  offset="0" style="stop-color:#FC7651"/>
					<stop  offset="1" style="stop-color:#F32A30"/>
				</linearGradient>
				<path class="st14" d="M55.8,366.9c-1.1,0-2.1-0.7-2.4-1.8c-0.8-3.4-2.3-9.7-2.3-25.4c0-17.4-3.6-30.6-4.9-36.2
					c-0.3-1.5,0.4-3.1,1.7-3.9l0,0c0.7-0.4,1.6-0.7,2.4-0.7h30.2c0,0,12.4,22.2,14,29.8c1.6,7.6,3.9,36.8,3.9,36.8L55.8,366.9z"/>
				<linearGradient id="SVGID_12_" gradientUnits="userSpaceOnUse" x1="49.2392" y1="332.899" x2="101.3065" y2="332.899">
					<stop  offset="0" style="stop-color:#F32A30"/>
					<stop  offset="1" style="stop-color:#FC7651"/>
				</linearGradient>
				<path class="st15" d="M56.8,366.9c0,0-2.8-5.5-2.9-27.3c0-17.9-3.6-32.7-4.6-38.4c-0.2-1.2,0.7-2.4,2-2.4h32.1
					c0,0,12.4,22.2,14,29.8c1.6,7.6,3.9,36.8,3.9,36.8L56.8,366.9z"/>
				<linearGradient id="SVGID_13_" gradientUnits="userSpaceOnUse" x1="53.9237" y1="363.5994" x2="86.0567" y2="363.5994">
					<stop  offset="0" style="stop-color:#FC7651"/>
					<stop  offset="1" style="stop-color:#F32A30"/>
				</linearGradient>
				<path class="st16" d="M55.5,366.9h30.6v-6.6H53.9v5.1C53.9,366.2,54.6,366.9,55.5,366.9z"/>
				<linearGradient id="SVGID_14_" gradientUnits="userSpaceOnUse" x1="61.4138" y1="363.5994" x2="108.5474" y2="363.5994">
					<stop  offset="0" style="stop-color:#FC7651"/>
					<stop  offset="1" style="stop-color:#F32A30"/>
				</linearGradient>
				<path class="st17" d="M61.4,366.9h45.2c1.1,0,2-0.9,2-2v-2.7c0-1.1-0.9-2-2-2H63.4c-1.1,0-2,0.9-2,2V366.9z"/>
			</g>
			<path class="st18" d="M85.2,270.7c0.9,2.1,2.1,7.2,2.2,9.4c0.2,3-0.7,5.8-2.4,7.4c-1.7,1.6-6,0.5-8.2-0.8c-2.2-1.4-3.1-4-4.2-6.4
				c-1.1-2.4-1.2-5.2-1.2-5.2s-2-3.9-0.3-6C77.6,260.8,84.3,268.6,85.2,270.7z"/>
			<path class="st19" d="M85.2,269.3c-1.5,1.5-3.8,2.8-8.6,2.5c-2.2-0.1-3.7,0.7-3.7,0.7c0.3,1.7,1.3,1.5,1.7,2.9
				c0.4,1.4-1,3.1-1,3.1s0.4,2.2,0,2.9c-0.4,0.8,0.1,5.6,0.1,5.6s-3.2-3.3-3.5-3.9c-0.4-0.6-2.8-1.1-4.5-2.9
				c-1.7-1.8-4.2-10.5,1.1-12.4c0,0,3.7-6.3,12.6-4C82.8,264.5,85.2,269.3,85.2,269.3z"/>
			<path class="st18" d="M73.7,278.9c-0.3-1-0.9-3.6-3.2-3c-2.3,0.6-0.6,3.9,0.4,4.4c1,0.5,2.6,1.9,2.6,1.9S74.2,280.4,73.7,278.9z"
				/>
			<path class="st18" d="M73.2,279.1c0,0-0.5,4.2-1,6.3c-0.4,2.1-1.2,2.9-1.7,3.4c-0.5,0.5-6.4,4.5-6.4,4.5s12.8,23.8,16.4,11.4
				c1.2-3.9,5.9-10.4,5.9-10.4s-4.4-3.5-5.1-5.2c-0.7-1.8-1-6.9-1-6.9L73.2,279.1z"/>
			<g>
				<linearGradient id="SVGID_15_" gradientUnits="userSpaceOnUse" x1="78.0486" y1="380.9193" x2="111.3549" y2="380.9193">
					<stop  offset="0" style="stop-color:#414042"/>
					<stop  offset="1" style="stop-color:#383233"/>
				</linearGradient>
				<path class="st20" d="M98,346.1c4.4-1,6.9,0.5,9.6,3.7c2.7,3.2,4.8,6.6,3.1,17.3c-1,6.5-4.6,49-4.6,49h-7.6c0,0-1.2-16.8-2-29
					c-0.8-12.3-1.2-29.8-1.2-29.8L78,346.1C78,346.1,94,346.9,98,346.1z"/>
				<linearGradient id="SVGID_16_" gradientUnits="userSpaceOnUse" x1="73.8761" y1="346.7629" x2="111.5375" y2="346.7629">
					<stop  offset="0" style="stop-color:#414042"/>
					<stop  offset="1" style="stop-color:#383233"/>
				</linearGradient>
				<path class="st21" d="M97.8,339.9c3.4,3.2,15.5,12.4,13.5,19l-15.5,1.8c0,0-13.6-4.9-17.8-14.6c-4.2-9.7-4.2-9.7-4.2-9.7l9-3.6
					L97.8,339.9z"/>
				<linearGradient id="SVGID_17_" gradientUnits="userSpaceOnUse" x1="64.8245" y1="379.924" x2="97.135" y2="379.924">
					<stop  offset="0" style="stop-color:#414042"/>
					<stop  offset="1" style="stop-color:#383233"/>
				</linearGradient>
				<path class="st22" d="M88,348.4c2.5,1.8,10.3,7.4,8.9,15c-0.7,3.9-10.1,22-16,31.8c-3,5-9,17.9-9,17.9l-7.1,1.2
					c0,0,3.9-12.7,6.6-24.4c2.7-11.7,8.3-25.7,8.3-25.7s-3.6-3.9-7.9-5.7c-4.3-1.9-6.6-2.6-0.2-8.8C78,343.6,83.2,345,88,348.4z"/>
				<path class="st18" d="M97.8,312.4c0.7,2.9,1.6,5.8,2.6,7.7c1.1,1.9,23,9.9,23,9.9h-12.8c0,0-12.2-1.6-15.7-6.3
					c-3.5-4.7-6.7-11.3-6.7-11.3H97.8z"/>
				<linearGradient id="SVGID_18_" gradientUnits="userSpaceOnUse" x1="87.2018" y1="305.796" x2="98.859" y2="305.796">
					<stop  offset="0" style="stop-color:#7ADEEE"/>
					<stop  offset="1" style="stop-color:#02A4D8"/>
				</linearGradient>
				<path class="st23" d="M90,293.5c2.3,1,4.4,6.7,6,11.6c1.7,4.9,2.9,7.2,2.9,7.2s-6.9,6.5-10,5.6c0,0-3-13.7-0.9-19.1
					S90,293.5,90,293.5z"/>
				<linearGradient id="SVGID_19_" gradientUnits="userSpaceOnUse" x1="55.3408" y1="316.7777" x2="97.8198" y2="316.7777">
					<stop  offset="0" style="stop-color:#7ADEEE"/>
					<stop  offset="1" style="stop-color:#02A4D8"/>
				</linearGradient>
				<path class="st24" d="M78.6,340.3c6.4-0.3,12.8-0.4,19.2-0.4c-3.1-2-2.7-3.4-3.3-4c-1.3-1.3-3-13.1-3-16.9
					c-0.1-10.7-1.5-25.5-1.5-25.5l-7.1-2.5c0,0-0.3,4.3-5.1,4.7c-10.5,0.8-10.1-4.9-10.1-4.9l-12.3,5.7c0,0,3.4,9.1,3.7,15
					c0.2,5.9,3,16.1,3.8,21.4c0.6,4.1-0.5,6.7-1.3,9.7C66.9,340.6,72.7,340.1,78.6,340.3z"/>
				<linearGradient id="SVGID_20_" gradientUnits="userSpaceOnUse" x1="64.2276" y1="415.1982" x2="78.3827" y2="415.1982">
					<stop  offset="0" style="stop-color:#414042"/>
					<stop  offset="1" style="stop-color:#383233"/>
				</linearGradient>
				<path class="st25" d="M72.3,412.3c-1.4-0.3-4,0.3-5.3,1.2c-1.3,0.9-2.7,0.9-2.7,0.9v3.9h14.2L72.3,412.3z"/>
				<linearGradient id="SVGID_21_" gradientUnits="userSpaceOnUse" x1="97.4803" y1="415.1277" x2="113.4824" y2="415.1277">
					<stop  offset="0" style="stop-color:#414042"/>
					<stop  offset="1" style="stop-color:#383233"/>
				</linearGradient>
				<polygon class="st26" points="106,412 98,413.8 97.5,418.2 113.5,418.3 				"/>
			</g>
			<path class="st18" d="M101.1,329c-1.9-0.2-3.8-2-11.2-2.1c-1.3,0-10.1-1.7-12.5-2.4c-4.7-1.4-7.1-3-7.1-3s-1.6-3.2-3.1-7.1
				c-3.1,0.8-6.2,1.4-9.4,1.9c2.3,5.4,6,10.2,7.2,11.1c3.7,2.8,12.3,2.6,14.4,2.7c4.8,0.1,25.3,0.6,25.3,0.6S106.4,329.6,101.1,329z
				"/>
			<linearGradient id="SVGID_22_" gradientUnits="userSpaceOnUse" x1="51.9275" y1="308.819" x2="68.0774" y2="308.819">
				<stop  offset="0" style="stop-color:#7ADEEE"/>
				<stop  offset="1" style="stop-color:#02A4D8"/>
			</linearGradient>
			<path class="st27" d="M68.1,316.5c0,0-6-13.7-6.8-15.4c-4.1-8.7-9.5-4-9.4,5.2c0,2.9,2,10.5,5.6,14.9
				C60.8,321.3,65.8,317.8,68.1,316.5z"/>
			<g>
				<polygon class="st12" points="96.7,330.6 104.8,330.6 112.9,302.3 106.7,302.3 				"/>
				<polygon class="st13" points="99,330.6 130.6,330.6 138.6,302.3 107.1,302.3 				"/>
				
					<rect x="94.4" y="330" transform="matrix(-1 -1.224647e-16 1.224647e-16 -1 224.9302 662.0416)" class="st13" width="36.2" height="2.1"/>
				
					<rect x="76.3" y="330" transform="matrix(-1 -1.224647e-16 1.224647e-16 -1 170.6654 662.0416)" class="st12" width="18.1" height="2.1"/>
				<path class="st12" d="M116.3,317.8c-0.9,2.2-0.3,4.5,1.4,5.2c1.7,0.7,3.8-0.5,4.7-2.6c0.9-2.2,0.3-4.5-1.4-5.2
					C119.4,314.5,117.2,315.7,116.3,317.8z"/>
			</g>
			<linearGradient id="SVGID_23_" gradientUnits="userSpaceOnUse" x1="61.3045" y1="354.2768" x2="95.601" y2="354.2768">
				<stop  offset="0" style="stop-color:#414042"/>
				<stop  offset="1" style="stop-color:#383233"/>
			</linearGradient>
			<path class="st28" d="M61.5,342.7c-1.2,5.7,1.6,18.3,20.3,21.5l10.6,4.3c0,0,4.2-4.8,2.9-11.3c-1.3-6.6-8.8-9.1-13.7-17
				c0,0-6.3-0.5-12.6,0.2C63.8,341,61.5,342.7,61.5,342.7z"/>
			<g>
				<linearGradient id="SVGID_24_" gradientUnits="userSpaceOnUse" x1="69.0774" y1="349.3798" x2="75.8325" y2="349.3798">
					<stop  offset="0" style="stop-color:#72778A"/>
					<stop  offset="1" style="stop-color:#2E303D"/>
				</linearGradient>
				<polygon class="st29" points="71,360.3 69.1,360.3 73.9,338.5 75.8,338.5 				"/>
				<linearGradient id="SVGID_25_" gradientUnits="userSpaceOnUse" x1="68.0774" y1="349.3798" x2="74.8325" y2="349.3798">
					<stop  offset="0" style="stop-color:#72778A"/>
					<stop  offset="1" style="stop-color:#2E303D"/>
				</linearGradient>
				<polygon class="st30" points="70,360.3 68.1,360.3 72.9,338.5 74.8,338.5 				"/>
				<linearGradient id="SVGID_26_" gradientUnits="userSpaceOnUse" x1="73.3023" y1="338.4695" x2="80.1329" y2="338.4695">
					<stop  offset="0" style="stop-color:#F32A30"/>
					<stop  offset="1" style="stop-color:#FC7651"/>
				</linearGradient>
				<polygon class="st31" points="73.3,340 80.1,340 80.1,336.9 73.3,336.9 				"/>
				<linearGradient id="SVGID_27_" gradientUnits="userSpaceOnUse" x1="47.6314" y1="338.4695" x2="73.3023" y2="338.4695">
					<stop  offset="0" style="stop-color:#F32A30"/>
					<stop  offset="1" style="stop-color:#FC7651"/>
				</linearGradient>
				<rect x="47.6" y="336.9" class="st32" width="25.7" height="3.1"/>
			</g>
		</g>
		<g>
			<linearGradient id="SVGID_28_" gradientUnits="userSpaceOnUse" x1="42.5962" y1="332.2202" x2="172.0939" y2="332.2202">
				<stop  offset="0" style="stop-color:#2E303D"/>
				<stop  offset="1" style="stop-color:#72778A"/>
			</linearGradient>
			<rect x="42.6" y="330" class="st33" width="129.5" height="4.5"/>
			<linearGradient id="SVGID_29_" gradientUnits="userSpaceOnUse" x1="126.4796" y1="332.2202" x2="174.1473" y2="332.2202">
				<stop  offset="0" style="stop-color:#2E303D"/>
				<stop  offset="1" style="stop-color:#72778A"/>
			</linearGradient>
			<rect x="126.5" y="330" class="st34" width="47.7" height="4.5"/>
			<g>
				<linearGradient id="SVGID_30_" gradientUnits="userSpaceOnUse" x1="139.9263" y1="376.9749" x2="159.6683" y2="376.9749">
					<stop  offset="0" style="stop-color:#2E303D"/>
					<stop  offset="1" style="stop-color:#72778A"/>
				</linearGradient>
				<polygon class="st35" points="159.7,419.5 157.5,419.5 139.9,334.5 144.4,334.5 				"/>
				<linearGradient id="SVGID_31_" gradientUnits="userSpaceOnUse" x1="45.8649" y1="376.9749" x2="65.6068" y2="376.9749">
					<stop  offset="0" style="stop-color:#2E303D"/>
					<stop  offset="1" style="stop-color:#72778A"/>
				</linearGradient>
				<polygon class="st36" points="45.9,419.5 48,419.5 65.6,334.5 61.2,334.5 				"/>
			</g>
			<g>
				<linearGradient id="SVGID_32_" gradientUnits="userSpaceOnUse" x1="157.1497" y1="376.9749" x2="176.8917" y2="376.9749">
					<stop  offset="0" style="stop-color:#2E303D"/>
					<stop  offset="1" style="stop-color:#72778A"/>
				</linearGradient>
				<polygon class="st37" points="176.9,419.5 174.7,419.5 157.1,334.5 161.6,334.5 				"/>
				<linearGradient id="SVGID_33_" gradientUnits="userSpaceOnUse" x1="63.0883" y1="376.9749" x2="82.8302" y2="376.9749">
					<stop  offset="0" style="stop-color:#2E303D"/>
					<stop  offset="1" style="stop-color:#72778A"/>
				</linearGradient>
				<polygon class="st38" points="63.1,419.5 65.2,419.5 82.8,334.5 78.4,334.5 				"/>
			</g>
		</g>
	</g>
	<g>
		<polyline class="st39" points="338.4,175.6 384.9,109 441.3,127.1 		"/>
		<ellipse transform="matrix(0.923 -0.3847 0.3847 0.923 -12.3806 156.1905)" class="st40" cx="384.2" cy="109" rx="8.7" ry="8.7"/>
		<path class="st40" d="M343,175.6c0,2.6-2.1,4.7-4.7,4.7c-2.6,0-4.7-2.1-4.7-4.7s2.1-4.7,4.7-4.7C341,171,343,173.1,343,175.6z"/>
		<path class="st40" d="M446,127.1c0,2.6-2.1,4.7-4.7,4.7c-2.6,0-4.7-2.1-4.7-4.7c0-2.6,2.1-4.7,4.7-4.7
			C443.9,122.5,446,124.5,446,127.1z"/>
	</g>
	<g>
		<polyline class="st41" points="230.4,62.3 217.9,79.8 193.2,59.6 		"/>
		<path class="st40" d="M213.3,78.5c0.8-2.8,3.7-4.4,6.5-3.6c2.8,0.8,4.4,3.7,3.6,6.5c-0.8,2.8-3.7,4.4-6.5,3.6
			C214.1,84.1,212.5,81.2,213.3,78.5z"/>
		
			<ellipse transform="matrix(0.8753 -0.4836 0.4836 0.8753 -1.3915 119.1984)" class="st40" cx="230.4" cy="62.3" rx="3.7" ry="3.7"/>
		<path class="st40" d="M190.6,58.8c0.4-1.4,1.9-2.3,3.4-1.9c1.4,0.4,2.3,1.9,1.9,3.4c-0.4,1.4-1.9,2.3-3.4,1.9
			C191,61.8,190.2,60.2,190.6,58.8z"/>
	</g>
	<g>
		<g>
			<line class="st42" x1="111.5" y1="241" x2="109.3" y2="241"/>
			<line class="st43" x1="104.9" y1="241" x2="72.5" y2="241"/>
			<polyline class="st42" points="70.3,241 68.1,241 68.1,238.8 			"/>
			<line class="st44" x1="68.1" y1="234.1" x2="68.1" y2="115"/>
			<polyline class="st42" points="68.1,112.7 68.1,110.4 70.3,110.4 			"/>
			<line class="st45" x1="74.6" y1="110.4" x2="132.7" y2="110.4"/>
			<line class="st42" x1="134.9" y1="110.4" x2="137.1" y2="110.4"/>
		</g>
	</g>
	<path class="st40" d="M464.2,166c0-1-0.1-2.1-0.6-3.1c-1.4-3.2-4.9-4.8-8.2-4c-1.7-2.3-4.3-3.8-7.4-3.8c-0.3,0-0.7,0-1,0.1
		c-1.9-3.8-5.8-6.4-10.3-6.4c-3.9,0-7.4,1.9-9.5,4.9c-1.1-0.4-2.2-0.6-3.4-0.6c-5.4,0-9.7,4.3-9.7,9.7c0,1.1,0.2,2.1,0.5,3.1H464.2z
		"/>
	<path class="st40" d="M211.9,121.5c1-2.3,1-4.9,0-7.3c-1.9-4.3-6.8-6.4-11.2-5c-2.7-3.8-7.2-6.3-12.2-6.3c-2,0-3.9,0.4-5.7,1.1
		c-1.4-6.9-7.5-12-14.7-12c-7.1,0-13,4.9-14.6,11.5c-1.2-0.4-2.4-0.6-3.7-0.6c-7,0-12.6,5.7-12.6,12.6c0,2.2,0.5,4.2,1.5,6H211.9z"
		/>
	<g>
		<g>
			<line class="st39" x1="272.4" y1="110.4" x2="262.6" y2="110.4"/>
			<line class="st39" x1="267.5" y1="105.5" x2="267.5" y2="115.3"/>
		</g>
		<g>
			<line class="st39" x1="153.3" y1="69.7" x2="147.3" y2="69.7"/>
			<line class="st39" x1="150.3" y1="66.7" x2="150.3" y2="72.7"/>
		</g>
		<g>
			<line class="st39" x1="379.8" y1="66.7" x2="373.9" y2="66.7"/>
			<line class="st39" x1="376.8" y1="63.7" x2="376.8" y2="69.7"/>
		</g>
		<g>
			<line class="st46" x1="420.3" y1="198.9" x2="415.4" y2="198.9"/>
			<line class="st46" x1="417.8" y1="196.4" x2="417.8" y2="201.3"/>
		</g>
		<g>
			<line class="st46" x1="301.6" y1="130.8" x2="296.7" y2="130.8"/>
			<line class="st46" x1="299.1" y1="128.3" x2="299.1" y2="133.2"/>
		</g>
		<g>
			<line class="st46" x1="107.2" y1="135.3" x2="102.3" y2="135.3"/>
			<line class="st46" x1="104.8" y1="132.8" x2="104.8" y2="137.7"/>
		</g>
		<circle class="st39" cx="80.2" cy="77" r="3.6"/>
		<circle class="st39" cx="439.2" cy="82.5" r="5.6"/>
		<path class="st39" d="M240.8,138.9c0,2-1.6,3.6-3.6,3.6c-2,0-3.6-1.6-3.6-3.6c0-2,1.6-3.6,3.6-3.6
			C239.1,135.3,240.8,136.9,240.8,138.9z"/>
		<circle class="st46" cx="37.2" cy="214.9" r="1.8"/>
	</g>
	<g>
		<path class="st40" d="M321,80c-5.9,4.7-6.9,13.3-2.2,19.2c4.7,5.9,13.3,6.9,19.2,2.2c5.9-4.7,6.9-13.3,2.2-19.2
			C335.5,76.3,326.9,75.3,321,80z M336.2,99.1c-4.6,3.7-11.4,2.9-15.1-1.7c-3.7-4.6-2.9-11.4,1.7-15.1c4.6-3.7,11.4-2.9,15.1,1.7
			C341.6,88.7,340.8,95.4,336.2,99.1z"/>
		<path class="st40" d="M347.9,113.8L347.9,113.8c-0.8,0.7-2.1,0.5-2.7-0.3l-9.4-11.9l3-2.4l9.4,11.9
			C348.8,111.9,348.7,113.1,347.9,113.8z"/>
		<path class="st40" d="M350.7,117.4L350.7,117.4c-1.2,0.9-2.8,0.7-3.8-0.4l-9.2-11.5l4.2-3.3l9.2,11.5
			C352,114.8,351.8,116.4,350.7,117.4z"/>
	</g>
	<g class="st47">
		<path class="st48" d="M254.3,319.8c0,0.4,3.6,0.7,8,0.7c4.4,0,8-0.3,8-0.7c0-0.4-3.6-0.7-8-0.7
			C257.9,319.1,254.3,319.4,254.3,319.8z"/>
	</g>
	<g>
		<g>
			<circle cx="320.5" cy="232.1" r="57.5"/>
			<g>
				<polygon class="st49" points="360.2,223 359.1,220.3 356.2,220.1 358.5,218.3 357.8,215.5 360.3,217.1 362.8,215.6 362.1,218.3 
					364.3,220.2 361.3,220.3 				"/>
			</g>
			<g>
				<polygon class="st49" points="338,238.2 337,235.7 334.2,235.5 336.4,233.8 335.8,231.2 338.1,232.6 340.5,231.2 339.8,233.8 
					341.9,235.6 339.1,235.7 				"/>
			</g>
			<g>
				<polygon class="st49" points="356.5,249.1 359.5,248.8 360.5,245.8 361.7,248.6 364.7,248.6 362.4,250.7 363.3,253.7 
					360.7,252.2 358.3,254 358.9,251 				"/>
			</g>
			<g>
				<polygon class="st49" points="310,195 309,192.1 305.8,191.8 308.3,189.9 307.7,186.9 310.3,188.7 313.1,187.2 312.1,190.1 
					314.5,192.2 311.3,192.2 				"/>
			</g>
			<g>
				<polygon class="st49" points="289.1,209.2 288.1,206.3 284.9,206 287.5,204.2 286.8,201.2 289.4,202.9 292.2,201.4 291.3,204.3 
					293.6,206.4 290.4,206.4 				"/>
			</g>
			<g>
				<polygon class="st49" points="280.3,225.8 279.3,223 276.2,222.7 278.7,220.9 278,218 280.6,219.7 283.3,218.2 282.4,221.1 
					284.7,223.1 281.6,223.1 				"/>
			</g>
			<g>
				<polygon class="st49" points="328.8,221.6 329.7,219.3 332.3,219 330.2,217.5 330.7,215 328.6,216.4 326.3,215.2 327,217.6 
					325.1,219.3 327.7,219.3 				"/>
			</g>
			<g>
				<polygon class="st49" points="281.3,250.9 282.3,248.2 285.3,247.9 282.9,246.2 283.5,243.4 281.1,245.1 278.5,243.6 
					279.4,246.4 277.2,248.3 280.2,248.3 				"/>
			</g>
			<g>
				<polygon class="st49" points="328.5,194.1 329.4,191.5 332.1,191.2 329.9,189.6 330.4,187 328.2,188.6 325.7,187.3 326.6,189.8 
					324.5,191.7 327.3,191.7 				"/>
			</g>
			<g>
				<polygon class="st49" points="303.1,237.1 303.8,235 306.1,234.7 304.2,233.4 304.7,231.2 302.8,232.5 300.8,231.5 301.5,233.6 
					299.8,235.1 302.1,235.1 				"/>
			</g>
			<g>
				<polygon class="st49" points="350.7,207.3 351.5,204.8 354.2,204.5 352,203 352.5,200.5 350.3,202 348,200.8 348.8,203.2 
					346.8,205 349.5,205 				"/>
			</g>
			<g>
				<g>
					<g>
						
							<radialGradient id="SVGID_34_" cx="201.5155" cy="-2410.0239" r="29.027" gradientTransform="matrix(1.635 1.0209 -2.605806e-02 4.173269e-02 -72.8389 128.448)" gradientUnits="userSpaceOnUse">
							<stop  offset="0" style="stop-color:#FFFFFF"/>
							<stop  offset="1" style="stop-color:#000000"/>
						</radialGradient>
						<path class="st50" d="M366.9,263.2c-0.4,0.7-22-12.1-48.2-28.4S271.6,204.6,272,204c0.4-0.7,22,12.1,48.2,28.4
							S367.3,262.6,366.9,263.2z"/>
						
							<radialGradient id="SVGID_35_" cx="126.4404" cy="-355.1722" r="29.0248" gradientTransform="matrix(1.6449 -1.0303 2.612555e-02 4.170774e-02 121.8753 377.8866)" gradientUnits="userSpaceOnUse">
							<stop  offset="0" style="stop-color:#FFFFFF"/>
							<stop  offset="1" style="stop-color:#000000"/>
						</radialGradient>
						<path class="st51" d="M368.3,202.9c0.4,0.7-20.6,14.6-47,31.1c-26.4,16.5-48.1,29.4-48.5,28.7c-0.4-0.7,20.6-14.6,47-31.1
							C346.2,215.1,367.9,202.2,368.3,202.9z"/>
						<g>
							<defs>
								<polygon id="SVGID_36_" points="327.4,232.4 314.6,232.9 312.2,181.2 325,180.7 								"/>
							</defs>
							<clipPath id="SVGID_37_">
								<use xlink:href="#SVGID_36_"  style="overflow:visible;"/>
							</clipPath>
							
								<radialGradient id="SVGID_38_" cx="674.0648" cy="2044.2935" r="40.5974" gradientTransform="matrix(-5.854975e-03 -1.0033 4.919932e-02 -2.322647e-04 222.9236 898.8462)" gradientUnits="userSpaceOnUse">
								<stop  offset="0" style="stop-color:#FFFFFF"/>
								<stop  offset="1" style="stop-color:#000000"/>
							</radialGradient>
							<path class="st52" d="M319.3,181.4c1.1,0,2.1,18.2,2.2,40.7c0.1,22.5-0.7,40.7-1.8,40.7c-1.1,0-2.1-18.2-2.2-40.7
								C317.4,199.6,318.2,181.4,319.3,181.4z"/>
						</g>
					</g>
					
						<radialGradient id="SVGID_39_" cx="322.0328" cy="158.0025" r="8.3777" gradientTransform="matrix(1 -5.248821e-03 5.248821e-03 1 -2.7565 76.1882)" gradientUnits="userSpaceOnUse">
						<stop  offset="0" style="stop-color:#FFFFFF"/>
						<stop  offset="1" style="stop-color:#000000"/>
					</radialGradient>
					<path class="st53" d="M328.5,232.5c0,4.6-3.7,8.4-8.3,8.4c-4.6,0-8.4-3.7-8.4-8.3c0-4.6,3.7-8.4,8.3-8.4
						C324.7,224.1,328.5,227.8,328.5,232.5z"/>
				</g>
			</g>
			<g>
				<polygon class="st49" points="319.4,244.4 320.4,246.8 323,246.9 321,248.5 321.8,250.9 319.5,249.6 317.3,251 317.9,248.6 
					315.8,247 318.5,246.8 				"/>
			</g>
			<g>
				<polygon class="st49" points="319.9,259 323.2,266.6 331.8,266.9 325.3,272.3 327.6,280.2 320.3,275.9 313.2,280.5 315.1,272.5 
					308.4,267.4 316.9,266.7 				"/>
			</g>
			<g>
				<polygon class="st49" points="310.4,213.8 309.9,216 307.5,216.5 309.6,217.6 309.3,219.9 311.1,218.4 313.3,219.3 312.4,217.2 
					313.9,215.5 311.6,215.7 				"/>
			</g>
			<path class="st5" d="M322.8,285.8c-29.5,1.2-54.4-21.7-55.7-51.2c-1.2-29.5,21.7-54.4,51.2-55.7c29.5-1.2,54.4,21.7,55.7,51.2
				C375.2,259.6,352.3,284.6,322.8,285.8z M318.4,181.9c-27.8,1.2-49.5,24.8-48.4,52.6c1.2,27.8,24.8,49.5,52.6,48.4
				c27.8-1.2,49.5-24.8,48.4-52.6C369.9,202.4,346.3,180.7,318.4,181.9z"/>
		</g>
		<g>
			<g>
				<rect x="292.6" y="301.9" class="st54" width="56.4" height="0.6"/>
			</g>
		</g>
		<g>
			<g>
				<rect x="290.4" y="310.7" class="st54" width="62.7" height="0.6"/>
			</g>
		</g>
		<path class="st49" d="M297.3,296.8h-2.1v1.2h0.5v1.7h-3V298h0.5v-4.1h-0.5v-1.7h4.7l1.2,1.2v2.3L297.3,296.8z M295.2,295.1h1
			l0.2-0.2v-0.8l-0.2-0.2h-1V295.1z"/>
		<path class="st49" d="M301.6,298h1.3v-0.3h1.7v2h-5.5V298h0.5v-4.1h-0.5v-1.7h5.5v2h-1.7v-0.3h-1.3v1.2h0.3v-0.3h1.7v2.3h-1.7
			v-0.3h-0.3V298z"/>
		<path class="st49" d="M309.7,299.7l-2-3.4v1.7h0.5v1.7h-3V298h0.5v-4.1h-0.5v-1.7h2.5l2.1,3.5v-1.8h-0.5v-1.7h3v1.7h-0.5v4.1h0.5
			v1.7H309.7z"/>
		<path class="st49" d="M319,294.3h-1.7v-0.4h-0.5v4.1h0.5v1.7h-3V298h0.5v-4.1h-0.5v0.4h-1.7v-2.1h6.4V294.3z"/>
		<path class="st49" d="M324.6,292.2v1.7h-0.4l1.7,4.1h0.5v1.7h-2.9V298h0.2l-0.1-0.3h-2l-0.1,0.3h0.2v1.7h-2.9V298h0.5l1.7-4.1
			h-0.3v-1.7H324.6z M322,296.2h1l-0.5-1.2L322,296.2z"/>
		<path class="st55" d="M329.8,293.9v4.1h1.4v-0.5h1.7v2.2h-5.6V298h0.5v-4.1h-0.5v-1.7h3v1.7H329.8z"/>
		<path class="st55" d="M339.5,298.5l-1.2,1.2h-3.3l-1.2-1.2v-4.6h-0.5v-1.7h3v1.7h-0.5v3.9l0.2,0.2h1.1l0.2-0.2v-3.9h-0.5v-1.7h3
			v1.7h-0.5V298.5z"/>
		<path class="st55" d="M344.6,297.1l-0.9,0.9h0.3v1.7h-3.6V298h0.7l2.1-2.1l-2.1-2.1h-0.7v-1.7h3.6v1.7h-0.3l0.9,0.9l0.9-0.9h-0.3
			v-1.7h3.5v1.7h-0.6l-2.1,2.1l2.1,2.1h0.6v1.7h-3.5V298h0.3L344.6,297.1z"/>
		<g>
			<g>
				<g>
					<path d="M292.3,306.9h-1.2l-0.7-0.7V305l0.7-0.7h1.8l0.7,0.7v0.8h-1.1v-0.4l-0.1-0.1h-0.6l-0.1,0.1v0.4l0.1,0.1h1.2l0.7,0.7
						v1.2l-0.7,0.7h-1.8l-0.7-0.7V307h1.1v0.4l0.1,0.1h0.6l0.1-0.1V307L292.3,306.9z"/>
					<path d="M294.4,305l0.7-0.7h1.8l0.7,0.7v2.8l-0.7,0.7H295l-0.7-0.7V305z M296.4,305.4l-0.1-0.1h-0.6l-0.1,0.1v2l0.1,0.1h0.6
						l0.1-0.1V305.4z"/>
					<path d="M299.7,305.3v2.3h0.7v-0.2h0.9v1.2h-3.1v-0.9h0.2v-2.3h-0.2v-0.9h1.6v0.9H299.7z"/>
					<path d="M305.4,307.8l-0.7,0.7H303l-0.7-0.7v-2.5h-0.2v-0.9h1.6v0.9h-0.2v2.1l0.1,0.1h0.6l0.1-0.1v-2.1h-0.2v-0.9h1.6v0.9h-0.2
						V307.8z"/>
					<path d="M309.9,305.5H309v-0.2h-0.2v2.3h0.2v0.9h-1.6v-0.9h0.3v-2.3h-0.3v0.2h-0.9v-1.2h3.5V305.5z"/>
					<path d="M312.3,308.5h-1.6v-0.9h0.2v-2.3h-0.2v-0.9h1.6v0.9H312v2.3h0.2V308.5z"/>
					<path d="M313,305l0.7-0.7h1.8l0.7,0.7v2.8l-0.7,0.7h-1.8l-0.7-0.7V305z M315,305.4l-0.1-0.1h-0.6l-0.1,0.1v2l0.1,0.1h0.6
						l0.1-0.1V305.4z"/>
					<path d="M319.5,308.5l-1.1-1.8v0.9h0.2v0.9H317v-0.9h0.2v-2.3H317v-0.9h1.3l1.1,1.9v-1h-0.2v-0.9h1.6v0.9h-0.2v2.3h0.2v0.9
						H319.5z"/>
					<path d="M323.5,306.9h-1.2l-0.7-0.7V305l0.7-0.7h1.8l0.7,0.7v0.8h-1.1v-0.4l-0.1-0.1h-0.6l-0.1,0.1v0.4l0.1,0.1h1.2l0.7,0.7
						v1.2l-0.7,0.7h-1.8l-0.7-0.7V307h1.1v0.4l0.1,0.1h0.6l0.1-0.1V307L323.5,306.9z"/>
				</g>
			</g>
			<g>
				<path d="M330.1,306.7h-1.2v0.6h0.3v0.9h-1.7v-0.9h0.3v-2.3h-0.3v-0.9h2.6l0.7,0.7v1.3L330.1,306.7z M328.9,305.8h0.6l0.1-0.1
					v-0.4l-0.1-0.1h-0.6V305.8z"/>
				<path d="M333.5,305.1h-0.1v-0.9h1.7v0.9h-0.4l-0.8,2.3h0.2v0.9H332v-0.9h0.2l-0.8-2.3h-0.3v-0.9h1.7v0.9h-0.1l0.5,1.4
					L333.5,305.1z"/>
				<path d="M338.9,305.3H338v-0.2h-0.3v2.3h0.3v0.9h-1.7v-0.9h0.3v-2.3h-0.3v0.2h-0.9v-1.2h3.5V305.3z"/>
				<path d="M340.2,308.3h-1.1v-1.1h1.1V308.3z"/>
				<path d="M343.3,305.1v2.3h0.8v-0.3h0.9v1.2h-3.1v-0.9h0.3v-2.3h-0.3v-0.9h1.7v0.9H343.3z"/>
				<path d="M348.8,305.3h-0.9v-0.2h-0.3v2.3h0.3v0.9h-1.7v-0.9h0.3v-2.3h-0.3v0.2h-0.9v-1.2h3.5V305.3z"/>
				<path d="M349,304.1h2.6l0.7,0.7v2.9l-0.7,0.7H349v-0.9h0.3v-2.3H349V304.1z M350.4,307.4h0.6l0.1-0.1v-2l-0.1-0.1h-0.6V307.4z"
					/>
				<path d="M353.6,308.3h-1.1v-1.1h1.1V308.3z"/>
			</g>
		</g>
	</g>
	<text transform="matrix(1 0 0 1 110.416 206.941)"><tspan x="0" y="0" class="st56 st57">Designed this logo for a client </tspan><tspan x="0" y="19.2" class="st56 st57">~ Specifications are given by client </tspan><tspan x="0" y="28.8" class="st56 st57">    itself.</tspan><tspan x="0" y="48" class="st56 st57">~ Red, Black and White colour </tspan><tspan x="0" y="57.6" class="st56 st57">    should be used.</tspan><tspan x="0" y="76.8" class="st56 st57">~ Software Used : Adobe Illustrator</tspan></text>
</g>
<g id="DESIGNED_BY_FREEPIK">
</g>
</svg>
