<?xml version="1.0" encoding="utf-8"?>
<!-- Generator: Adobe Illustrator 24.2.3, SVG Export Plug-In . SVG Version: 6.00 Build 0)  -->
<svg version="1.1" xmlns="http://www.w3.org/2000/svg" xmlns:xlink="http://www.w3.org/1999/xlink" x="0px" y="0px"
	 viewBox="0 0 500 500" style="enable-background:new 0 0 500 500;" xml:space="preserve">
<style type="text/css">
	.st0{clip-path:url(#SVGID_2_);fill:#FFFFFF;}
	.st1{opacity:0.38;fill:#C9CDCF;}
	.st2{fill:url(#SVGID_3_);}
	.st3{fill:#BFC3CE;}
	.st4{opacity:0.7;fill:url(#SVGID_4_);}
	.st5{fill:#FFFFFF;}
	.st6{fill:url(#SVGID_5_);}
	.st7{fill:url(#SVGID_6_);}
	.st8{fill:url(#SVGID_7_);}
	.st9{fill:url(#SVGID_8_);}
	.st10{fill:url(#SVGID_9_);}
	.st11{fill:url(#SVGID_10_);}
	.st12{fill:#A6AEBA;}
	.st13{fill:#D2DCEB;}
	.st14{fill:url(#SVGID_11_);}
	.st15{fill:url(#SVGID_12_);}
	.st16{fill:url(#SVGID_13_);}
	.st17{fill:url(#SVGID_14_);}
	.st18{fill:#FEC4AD;}
	.st19{fill:#613531;}
	.st20{fill:url(#SVGID_15_);}
	.st21{fill:url(#SVGID_16_);}
	.st22{fill:url(#SVGID_17_);}
	.st23{fill:url(#SVGID_18_);}
	.st24{fill:url(#SVGID_19_);}
	.st25{fill:url(#SVGID_20_);}
	.st26{fill:url(#SVGID_21_);}
	.st27{fill:url(#SVGID_22_);}
	.st28{fill:url(#SVGID_23_);}
	.st29{fill:url(#SVGID_24_);}
	.st30{fill:url(#SVGID_25_);}
	.st31{fill:url(#SVGID_26_);}
	.st32{fill:url(#SVGID_27_);}
	.st33{fill:url(#SVGID_28_);}
	.st34{fill:url(#SVGID_29_);}
	.st35{fill:url(#SVGID_30_);}
	.st36{fill:url(#SVGID_31_);}
	.st37{fill:url(#SVGID_32_);}
	.st38{fill:url(#SVGID_33_);}
	.st39{fill:none;stroke:#C9CDCF;stroke-width:2;stroke-miterlimit:10;}
	.st40{fill:#C9CDCF;}
	.st41{fill:none;stroke:#C9CDCF;stroke-width:1.1673;stroke-miterlimit:10;}
	.st42{fill:none;stroke:#C9CDCF;stroke-width:1.2086;stroke-miterlimit:10;}
	.st43{fill:none;stroke:#C9CDCF;stroke-width:1.2086;stroke-miterlimit:10;stroke-dasharray:4.3253,4.3253;}
	.st44{fill:none;stroke:#C9CDCF;stroke-width:1.2086;stroke-miterlimit:10;stroke-dasharray:4.67,4.67;}
	.st45{fill:none;stroke:#C9CDCF;stroke-width:1.2086;stroke-miterlimit:10;stroke-dasharray:4.301,4.301;}
	.st46{fill:none;stroke:#C9CDCF;stroke-miterlimit:10;}
	.st47{fill:#023E8A;}
	.st48{fill:#0077B6;}
	.st49{opacity:0.2;fill:#CAF0F8;}
	.st50{opacity:0.55;fill:#90E0EF;}
	.st51{opacity:0.3;fill:#ADE8F4;}
	.st52{fill:#00B4D8;}
	.st53{fill:#90E0EF;}
	.st54{opacity:0.7;}
	.st55{fill:#48CAE4;}
	.st56{fill:#EAEAEA;}
	.st57{opacity:0.5;fill:#B0AED4;}
	.st58{fill:#CAF0F8;}
	.st59{opacity:0.5;}
	.st60{opacity:0.5;fill:#FFFFFF;}
	.st61{fill:#D1CFE5;}
	.st62{fill:#F6C064;}
	.st63{fill:#AE835B;}
	.st64{fill:#E98236;}
	.st65{opacity:0.3;}
	.st66{opacity:0.5;fill:#ADE8F4;}
	.st67{fill:#E9A056;}
	.st68{fill:#D38C4C;}
	.st69{fill:#B9C9E1;}
	.st70{fill:#03045E;}
	.st71{opacity:0.5;fill:#8DB9BF;}
	.st72{fill:#11100F;}
	.st73{fill:#FEFEFE;}
	.st74{fill:none;stroke:#FEFEFE;stroke-width:0.2537;stroke-miterlimit:10;}
	.st75{fill:#173A2C;}
	.st76{fill:#81172B;}
	.st77{fill:none;stroke:#11100F;stroke-width:0.2537;stroke-linecap:round;stroke-miterlimit:10;}
	.st78{fill:none;stroke:#FEFEFE;stroke-width:0.1268;stroke-miterlimit:10;}
	.st79{opacity:0.2;}
	.st80{fill:#989898;}
	.st81{opacity:0.3;fill:#050404;}
	.st82{fill:#050404;}
	.st83{opacity:0.5;fill:#050404;}
	.st84{fill:#D8826A;}
	.st85{fill:#4F459D;}
	.st86{fill:#EA9C80;}
	.st87{fill:#2B1E56;}
	.st88{opacity:0.3;fill:#B0AED4;}
	.st89{fill:none;stroke:#F6C896;stroke-width:0.3896;stroke-miterlimit:10;}
	.st90{fill:#F9BEAE;}
	.st91{fill:#FA8A29;}
	.st92{fill:#F17216;}
	.st93{fill:#B0AED4;}
	.st94{fill:none;stroke:#90E0EF;stroke-miterlimit:10;}
	.st95{fill:none;stroke:#CAF0F8;stroke-miterlimit:10;}
	.st96{fill:none;stroke:#023E8A;stroke-miterlimit:10;}
	.st97{fill:none;stroke:#6CBEBB;stroke-width:0.5;stroke-miterlimit:10;}
	.st98{fill:#339CA3;}
	.st99{font-family:'ALBRA';}
	.st100{font-size:12.49px;}
	.st101{fill:#52B8B1;}
	.st102{fill:#F95746;}
	.st103{font-family:'ArialMT';}
	.st104{font-size:5.7225px;}
	.st105{fill:none;stroke:#FF4B42;stroke-width:0.75;stroke-miterlimit:10;}
	.st106{font-size:7.6943px;}
	.st107{font-size:7.619px;}
	.st108{fill:#FC8A7E;}
	.st109{fill:#FFFFFF;stroke:#FFFFFF;stroke-width:0.25;stroke-miterlimit:10;}
	.st110{font-family:'Arial-BoldMT';}
	.st111{font-size:12.4792px;}
	.st112{fill:none;stroke:#FC8A7E;stroke-linecap:square;stroke-miterlimit:10;}
</style>
<g id="BACKGROUND">
	<g>
		<defs>
			<rect id="SVGID_1_" width="500" height="500"/>
		</defs>
		<clipPath id="SVGID_2_">
			<use xlink:href="#SVGID_1_"  style="overflow:visible;"/>
		</clipPath>
		<rect class="st0" width="500" height="500"/>
	</g>
</g>
<g id="OBJECTS">
	<path class="st1" d="M322.4,388.4c22.6-1.1,44.5-2.1,70.3-1.1c7.9,0.3,16.7,0.8,26.9,2.1c10.8,1.4,24.4,3.9,35.5,7.1
		c19.1,5.5,24.8,11.2,16.7,13.4c-8.7,2.4-27.9,1.4-45.4,0.7c-106.7-3.8-213.3,9.1-339.8,13.4c-27.5,0.9-110.6,1.7-7.7-18.2
		c52.2-10.1,82.3-10.4,112.7-11.6C238.8,392.5,282.4,390.2,322.4,388.4z"/>
	<g>
		<g>
			<g>
				<linearGradient id="SVGID_3_" gradientUnits="userSpaceOnUse" x1="240.235" y1="407.8611" x2="245.307" y2="142.0899">
					<stop  offset="0" style="stop-color:#2E303D"/>
					<stop  offset="1" style="stop-color:#72778A"/>
				</linearGradient>
				<path class="st2" d="M384.6,372.4H101.4c-4.4,0-7.9-3.5-7.9-7.9V161.5c0-4.4,3.5-7.9,7.9-7.9h283.2c4.4,0,7.9,3.5,7.9,7.9v202.9
					C392.5,368.8,389,372.4,384.6,372.4z"/>
				<path class="st3" d="M384.6,372.4H101.4c-4.4,0-7.9-3.5-7.9-7.9V331h299.1v33.4C392.5,368.8,389,372.4,384.6,372.4z"/>
				
					<radialGradient id="SVGID_4_" cx="218.0632" cy="317.0641" r="187.5492" gradientTransform="matrix(1 0 0 0.237 0 241.9339)" gradientUnits="userSpaceOnUse">
					<stop  offset="0" style="stop-color:#FFFFFF"/>
					<stop  offset="1" style="stop-color:#FFFFFF;stop-opacity:0"/>
				</radialGradient>
				<path class="st4" d="M384.6,372.4H101.4c-4.4,0-7.9-3.5-7.9-7.9V331h299.1v33.4C392.5,368.8,389,372.4,384.6,372.4z"/>
				
					<rect x="164.3" y="103.6" transform="matrix(-1.836970e-16 1 -1 -1.836970e-16 485.7023 -0.2989)" class="st5" width="157.4" height="278.3"/>
			</g>
			<path class="st3" d="M209.3,372.4c-2.8,12-6.8,21.6-6.8,21.6h81.1c0,0-4.1-9.6-6.8-21.6H209.3z"/>
			<linearGradient id="SVGID_5_" gradientUnits="userSpaceOnUse" x1="243.5637" y1="370.2787" x2="242.883" y2="398.8679">
				<stop  offset="0" style="stop-color:#75769A"/>
				<stop  offset="1" style="stop-color:#FFFFFF;stop-opacity:0"/>
			</linearGradient>
			<path class="st6" d="M209.3,372.4c-2.8,12-6.8,21.6-6.8,21.6h81.1c0,0-4.1-9.6-6.8-21.6H209.3z"/>
			<linearGradient id="SVGID_6_" gradientUnits="userSpaceOnUse" x1="242.8589" y1="407.9112" x2="247.9309" y2="142.1432">
				<stop  offset="0" style="stop-color:#2E303D"/>
				<stop  offset="1" style="stop-color:#72778A"/>
			</linearGradient>
			<path class="st7" d="M292.8,394h-99.6c-3.6,0-6.6,3-6.6,6.6l0,0h112.8l0,0C299.4,396.9,296.5,394,292.8,394z"/>
		</g>
	</g>
	<g>
		<g>
			<linearGradient id="SVGID_7_" gradientUnits="userSpaceOnUse" x1="103.6609" y1="349.3798" x2="110.416" y2="349.3798">
				<stop  offset="0" style="stop-color:#72778A"/>
				<stop  offset="1" style="stop-color:#2E303D"/>
			</linearGradient>
			<polygon class="st8" points="105.6,360.3 103.7,360.3 108.5,338.5 110.4,338.5 			"/>
			<linearGradient id="SVGID_8_" gradientUnits="userSpaceOnUse" x1="102.6609" y1="349.3798" x2="109.416" y2="349.3798">
				<stop  offset="0" style="stop-color:#72778A"/>
				<stop  offset="1" style="stop-color:#2E303D"/>
			</linearGradient>
			<polygon class="st9" points="104.6,360.3 102.7,360.3 107.5,338.5 109.4,338.5 			"/>
			<linearGradient id="SVGID_9_" gradientUnits="userSpaceOnUse" x1="107.8858" y1="338.4695" x2="114.7164" y2="338.4695">
				<stop  offset="0" style="stop-color:#F32A30"/>
				<stop  offset="1" style="stop-color:#FC7651"/>
			</linearGradient>
			<polygon class="st10" points="107.9,340 114.7,340 114.7,336.9 107.9,336.9 			"/>
			<linearGradient id="SVGID_10_" gradientUnits="userSpaceOnUse" x1="82.2149" y1="338.4695" x2="107.8858" y2="338.4695">
				<stop  offset="0" style="stop-color:#F32A30"/>
				<stop  offset="1" style="stop-color:#FC7651"/>
			</linearGradient>
			<rect x="82.2" y="336.9" class="st11" width="25.7" height="3.1"/>
		</g>
		<g>
			<g>
				<g>
					<g>
						
							<rect x="76.2" y="378.6" transform="matrix(-1 -1.224647e-16 1.224647e-16 -1 155.4999 787.4975)" class="st12" width="3.1" height="30.2"/>
						
							<rect x="75.2" y="374.2" transform="matrix(-1 -1.224647e-16 1.224647e-16 -1 155.4999 752.8959)" class="st13" width="5" height="4.4"/>
						
							<rect x="75.9" y="397.2" transform="matrix(-1 -1.224647e-16 1.224647e-16 -1 155.4997 803.8787)" class="st13" width="3.8" height="9.4"/>
						
							<rect x="75.2" y="406.7" transform="matrix(-1 -1.224647e-16 1.224647e-16 -1 155.4999 817.7019)" class="st13" width="5" height="4.4"/>
						
							<rect x="71.7" y="365.9" transform="matrix(-1 -1.224647e-16 1.224647e-16 -1 155.4998 740.1742)" class="st12" width="12.1" height="8.3"/>
						<path class="st12" d="M62.1,369.7h32.6c0.4,0,0.6-0.3,0.6-0.6v-4.9c0-0.4-0.3-0.6-0.6-0.6H62.1c-0.4,0-0.6,0.3-0.6,0.6v4.9
							C61.4,369.4,61.7,369.7,62.1,369.7z"/>
						<polygon class="st12" points="65.7,415.3 75.2,410.5 75.2,407.2 64.4,414.5 						"/>
						<path class="st12" d="M62.2,416.2c0,1.2,1,2.2,2.2,2.2c1.2,0,2.2-1,2.2-2.2c0-1.2-1-2.2-2.2-2.2
							C63.2,413.9,62.2,414.9,62.2,416.2z"/>
						<path class="st12" d="M75.5,416.2c0,1.2,1,2.2,2.2,2.2s2.2-1,2.2-2.2c0-1.2-1-2.2-2.2-2.2S75.5,414.9,75.5,416.2z"/>
						<polygon class="st12" points="89.8,415.3 80.3,410.5 80.3,407.2 91.1,414.5 						"/>
						<path class="st12" d="M93.3,416.2c0,1.2-1,2.2-2.2,2.2c-1.2,0-2.2-1-2.2-2.2c0-1.2,1-2.2,2.2-2.2
							C92.3,413.9,93.3,414.9,93.3,416.2z"/>
						
							<rect x="77.1" y="408.9" transform="matrix(-1 -1.224647e-16 1.224647e-16 -1 155.4999 825.003)" class="st12" width="1.2" height="7.3"/>
					</g>
				</g>
				<linearGradient id="SVGID_11_" gradientUnits="userSpaceOnUse" x1="46.0765" y1="332.8705" x2="98.4657" y2="332.8705">
					<stop  offset="0" style="stop-color:#FC7651"/>
					<stop  offset="1" style="stop-color:#F32A30"/>
				</linearGradient>
				<path class="st14" d="M55.8,366.9c-1.1,0-2.1-0.7-2.4-1.8c-0.8-3.4-2.3-9.7-2.3-25.4c0-17.4-3.6-30.6-4.9-36.2
					c-0.3-1.5,0.4-3.1,1.7-3.9l0,0c0.7-0.4,1.6-0.7,2.4-0.7h30.2c0,0,12.4,22.2,14,29.8c1.6,7.6,3.9,36.8,3.9,36.8L55.8,366.9z"/>
				<linearGradient id="SVGID_12_" gradientUnits="userSpaceOnUse" x1="49.2392" y1="332.899" x2="101.3065" y2="332.899">
					<stop  offset="0" style="stop-color:#F32A30"/>
					<stop  offset="1" style="stop-color:#FC7651"/>
				</linearGradient>
				<path class="st15" d="M56.8,366.9c0,0-2.8-5.5-2.9-27.3c0-17.9-3.6-32.7-4.6-38.4c-0.2-1.2,0.7-2.4,2-2.4h32.1
					c0,0,12.4,22.2,14,29.8c1.6,7.6,3.9,36.8,3.9,36.8L56.8,366.9z"/>
				<linearGradient id="SVGID_13_" gradientUnits="userSpaceOnUse" x1="53.9237" y1="363.5994" x2="86.0567" y2="363.5994">
					<stop  offset="0" style="stop-color:#FC7651"/>
					<stop  offset="1" style="stop-color:#F32A30"/>
				</linearGradient>
				<path class="st16" d="M55.5,366.9h30.6v-6.6H53.9v5.1C53.9,366.2,54.6,366.9,55.5,366.9z"/>
				<linearGradient id="SVGID_14_" gradientUnits="userSpaceOnUse" x1="61.4138" y1="363.5994" x2="108.5474" y2="363.5994">
					<stop  offset="0" style="stop-color:#FC7651"/>
					<stop  offset="1" style="stop-color:#F32A30"/>
				</linearGradient>
				<path class="st17" d="M61.4,366.9h45.2c1.1,0,2-0.9,2-2v-2.7c0-1.1-0.9-2-2-2H63.4c-1.1,0-2,0.9-2,2V366.9z"/>
			</g>
			<path class="st18" d="M85.2,270.7c0.9,2.1,2.1,7.2,2.2,9.4c0.2,3-0.7,5.8-2.4,7.4c-1.7,1.6-6,0.5-8.2-0.8c-2.2-1.4-3.1-4-4.2-6.4
				c-1.1-2.4-1.2-5.2-1.2-5.2s-2-3.9-0.3-6C77.6,260.8,84.3,268.6,85.2,270.7z"/>
			<path class="st19" d="M85.2,269.3c-1.5,1.5-3.8,2.8-8.6,2.5c-2.2-0.1-3.7,0.7-3.7,0.7c0.3,1.7,1.3,1.5,1.7,2.9
				c0.4,1.4-1,3.1-1,3.1s0.4,2.2,0,2.9c-0.4,0.8,0.1,5.6,0.1,5.6s-3.2-3.3-3.5-3.9c-0.4-0.6-2.8-1.1-4.5-2.9
				c-1.7-1.8-4.2-10.5,1.1-12.4c0,0,3.7-6.3,12.6-4C82.8,264.5,85.2,269.3,85.2,269.3z"/>
			<path class="st18" d="M73.7,278.9c-0.3-1-0.9-3.6-3.2-3c-2.3,0.6-0.6,3.9,0.4,4.4c1,0.5,2.6,1.9,2.6,1.9S74.2,280.4,73.7,278.9z"
				/>
			<path class="st18" d="M73.2,279.1c0,0-0.5,4.2-1,6.3c-0.4,2.1-1.2,2.9-1.7,3.4c-0.5,0.5-6.4,4.5-6.4,4.5s12.8,23.8,16.4,11.4
				c1.2-3.9,5.9-10.4,5.9-10.4s-4.4-3.5-5.1-5.2c-0.7-1.8-1-6.9-1-6.9L73.2,279.1z"/>
			<g>
				<linearGradient id="SVGID_15_" gradientUnits="userSpaceOnUse" x1="78.0486" y1="380.9193" x2="111.3549" y2="380.9193">
					<stop  offset="0" style="stop-color:#414042"/>
					<stop  offset="1" style="stop-color:#383233"/>
				</linearGradient>
				<path class="st20" d="M98,346.1c4.4-1,6.9,0.5,9.6,3.7c2.7,3.2,4.8,6.6,3.1,17.3c-1,6.5-4.6,49-4.6,49h-7.6c0,0-1.2-16.8-2-29
					c-0.8-12.3-1.2-29.8-1.2-29.8L78,346.1C78,346.1,94,346.9,98,346.1z"/>
				<linearGradient id="SVGID_16_" gradientUnits="userSpaceOnUse" x1="73.8761" y1="346.7629" x2="111.5375" y2="346.7629">
					<stop  offset="0" style="stop-color:#414042"/>
					<stop  offset="1" style="stop-color:#383233"/>
				</linearGradient>
				<path class="st21" d="M97.8,339.9c3.4,3.2,15.5,12.4,13.5,19l-15.5,1.8c0,0-13.6-4.9-17.8-14.6c-4.2-9.7-4.2-9.7-4.2-9.7l9-3.6
					L97.8,339.9z"/>
				<linearGradient id="SVGID_17_" gradientUnits="userSpaceOnUse" x1="64.8245" y1="379.924" x2="97.135" y2="379.924">
					<stop  offset="0" style="stop-color:#414042"/>
					<stop  offset="1" style="stop-color:#383233"/>
				</linearGradient>
				<path class="st22" d="M88,348.4c2.5,1.8,10.3,7.4,8.9,15c-0.7,3.9-10.1,22-16,31.8c-3,5-9,17.9-9,17.9l-7.1,1.2
					c0,0,3.9-12.7,6.6-24.4c2.7-11.7,8.3-25.7,8.3-25.7s-3.6-3.9-7.9-5.7c-4.3-1.9-6.6-2.6-0.2-8.8C78,343.6,83.2,345,88,348.4z"/>
				<path class="st18" d="M97.8,312.4c0.7,2.9,1.6,5.8,2.6,7.7c1.1,1.9,23,9.9,23,9.9h-12.8c0,0-12.2-1.6-15.7-6.3
					c-3.5-4.7-6.7-11.3-6.7-11.3H97.8z"/>
				<linearGradient id="SVGID_18_" gradientUnits="userSpaceOnUse" x1="87.2018" y1="305.796" x2="98.859" y2="305.796">
					<stop  offset="0" style="stop-color:#7ADEEE"/>
					<stop  offset="1" style="stop-color:#02A4D8"/>
				</linearGradient>
				<path class="st23" d="M90,293.5c2.3,1,4.4,6.7,6,11.6c1.7,4.9,2.9,7.2,2.9,7.2s-6.9,6.5-10,5.6c0,0-3-13.7-0.9-19.1
					S90,293.5,90,293.5z"/>
				<linearGradient id="SVGID_19_" gradientUnits="userSpaceOnUse" x1="55.3408" y1="316.7777" x2="97.8198" y2="316.7777">
					<stop  offset="0" style="stop-color:#7ADEEE"/>
					<stop  offset="1" style="stop-color:#02A4D8"/>
				</linearGradient>
				<path class="st24" d="M78.6,340.3c6.4-0.3,12.8-0.4,19.2-0.4c-3.1-2-2.7-3.4-3.3-4c-1.3-1.3-3-13.1-3-16.9
					c-0.1-10.7-1.5-25.5-1.5-25.5l-7.1-2.5c0,0-0.3,4.3-5.1,4.7c-10.5,0.8-10.1-4.9-10.1-4.9l-12.3,5.7c0,0,3.4,9.1,3.7,15
					c0.2,5.9,3,16.1,3.8,21.4c0.6,4.1-0.5,6.7-1.3,9.7C66.9,340.6,72.7,340.1,78.6,340.3z"/>
				<linearGradient id="SVGID_20_" gradientUnits="userSpaceOnUse" x1="64.2276" y1="415.1982" x2="78.3827" y2="415.1982">
					<stop  offset="0" style="stop-color:#414042"/>
					<stop  offset="1" style="stop-color:#383233"/>
				</linearGradient>
				<path class="st25" d="M72.3,412.3c-1.4-0.3-4,0.3-5.3,1.2c-1.3,0.9-2.7,0.9-2.7,0.9v3.9h14.2L72.3,412.3z"/>
				<linearGradient id="SVGID_21_" gradientUnits="userSpaceOnUse" x1="97.4803" y1="415.1277" x2="113.4824" y2="415.1277">
					<stop  offset="0" style="stop-color:#414042"/>
					<stop  offset="1" style="stop-color:#383233"/>
				</linearGradient>
				<polygon class="st26" points="106,412 98,413.8 97.5,418.2 113.5,418.3 				"/>
			</g>
			<path class="st18" d="M101.1,329c-1.9-0.2-3.8-2-11.2-2.1c-1.3,0-10.1-1.7-12.5-2.4c-4.7-1.4-7.1-3-7.1-3s-1.6-3.2-3.1-7.1
				c-3.1,0.8-6.2,1.4-9.4,1.9c2.3,5.4,6,10.2,7.2,11.1c3.7,2.8,12.3,2.6,14.4,2.7c4.8,0.1,25.3,0.6,25.3,0.6S106.4,329.6,101.1,329z
				"/>
			<linearGradient id="SVGID_22_" gradientUnits="userSpaceOnUse" x1="51.9275" y1="308.819" x2="68.0774" y2="308.819">
				<stop  offset="0" style="stop-color:#7ADEEE"/>
				<stop  offset="1" style="stop-color:#02A4D8"/>
			</linearGradient>
			<path class="st27" d="M68.1,316.5c0,0-6-13.7-6.8-15.4c-4.1-8.7-9.5-4-9.4,5.2c0,2.9,2,10.5,5.6,14.9
				C60.8,321.3,65.8,317.8,68.1,316.5z"/>
			<g>
				<polygon class="st12" points="96.7,330.6 104.8,330.6 112.9,302.3 106.7,302.3 				"/>
				<polygon class="st13" points="99,330.6 130.6,330.6 138.6,302.3 107.1,302.3 				"/>
				
					<rect x="94.4" y="330" transform="matrix(-1 -1.224647e-16 1.224647e-16 -1 224.9302 662.0416)" class="st13" width="36.2" height="2.1"/>
				
					<rect x="76.3" y="330" transform="matrix(-1 -1.224647e-16 1.224647e-16 -1 170.6654 662.0416)" class="st12" width="18.1" height="2.1"/>
				<path class="st12" d="M116.3,317.8c-0.9,2.2-0.3,4.5,1.4,5.2c1.7,0.7,3.8-0.5,4.7-2.6c0.9-2.2,0.3-4.5-1.4-5.2
					C119.4,314.5,117.2,315.7,116.3,317.8z"/>
			</g>
			<linearGradient id="SVGID_23_" gradientUnits="userSpaceOnUse" x1="61.3045" y1="354.2768" x2="95.601" y2="354.2768">
				<stop  offset="0" style="stop-color:#414042"/>
				<stop  offset="1" style="stop-color:#383233"/>
			</linearGradient>
			<path class="st28" d="M61.5,342.7c-1.2,5.7,1.6,18.3,20.3,21.5l10.6,4.3c0,0,4.2-4.8,2.9-11.3c-1.3-6.6-8.8-9.1-13.7-17
				c0,0-6.3-0.5-12.6,0.2C63.8,341,61.5,342.7,61.5,342.7z"/>
			<g>
				<linearGradient id="SVGID_24_" gradientUnits="userSpaceOnUse" x1="69.0774" y1="349.3798" x2="75.8325" y2="349.3798">
					<stop  offset="0" style="stop-color:#72778A"/>
					<stop  offset="1" style="stop-color:#2E303D"/>
				</linearGradient>
				<polygon class="st29" points="71,360.3 69.1,360.3 73.9,338.5 75.8,338.5 				"/>
				<linearGradient id="SVGID_25_" gradientUnits="userSpaceOnUse" x1="68.0774" y1="349.3798" x2="74.8325" y2="349.3798">
					<stop  offset="0" style="stop-color:#72778A"/>
					<stop  offset="1" style="stop-color:#2E303D"/>
				</linearGradient>
				<polygon class="st30" points="70,360.3 68.1,360.3 72.9,338.5 74.8,338.5 				"/>
				<linearGradient id="SVGID_26_" gradientUnits="userSpaceOnUse" x1="73.3023" y1="338.4695" x2="80.1329" y2="338.4695">
					<stop  offset="0" style="stop-color:#F32A30"/>
					<stop  offset="1" style="stop-color:#FC7651"/>
				</linearGradient>
				<polygon class="st31" points="73.3,340 80.1,340 80.1,336.9 73.3,336.9 				"/>
				<linearGradient id="SVGID_27_" gradientUnits="userSpaceOnUse" x1="47.6314" y1="338.4695" x2="73.3023" y2="338.4695">
					<stop  offset="0" style="stop-color:#F32A30"/>
					<stop  offset="1" style="stop-color:#FC7651"/>
				</linearGradient>
				<rect x="47.6" y="336.9" class="st32" width="25.7" height="3.1"/>
			</g>
		</g>
		<g>
			<linearGradient id="SVGID_28_" gradientUnits="userSpaceOnUse" x1="42.5962" y1="332.2202" x2="172.0939" y2="332.2202">
				<stop  offset="0" style="stop-color:#2E303D"/>
				<stop  offset="1" style="stop-color:#72778A"/>
			</linearGradient>
			<rect x="42.6" y="330" class="st33" width="129.5" height="4.5"/>
			<linearGradient id="SVGID_29_" gradientUnits="userSpaceOnUse" x1="126.4796" y1="332.2202" x2="174.1473" y2="332.2202">
				<stop  offset="0" style="stop-color:#2E303D"/>
				<stop  offset="1" style="stop-color:#72778A"/>
			</linearGradient>
			<rect x="126.5" y="330" class="st34" width="47.7" height="4.5"/>
			<g>
				<linearGradient id="SVGID_30_" gradientUnits="userSpaceOnUse" x1="139.9263" y1="376.9749" x2="159.6683" y2="376.9749">
					<stop  offset="0" style="stop-color:#2E303D"/>
					<stop  offset="1" style="stop-color:#72778A"/>
				</linearGradient>
				<polygon class="st35" points="159.7,419.5 157.5,419.5 139.9,334.5 144.4,334.5 				"/>
				<linearGradient id="SVGID_31_" gradientUnits="userSpaceOnUse" x1="45.8649" y1="376.9749" x2="65.6068" y2="376.9749">
					<stop  offset="0" style="stop-color:#2E303D"/>
					<stop  offset="1" style="stop-color:#72778A"/>
				</linearGradient>
				<polygon class="st36" points="45.9,419.5 48,419.5 65.6,334.5 61.2,334.5 				"/>
			</g>
			<g>
				<linearGradient id="SVGID_32_" gradientUnits="userSpaceOnUse" x1="157.1497" y1="376.9749" x2="176.8917" y2="376.9749">
					<stop  offset="0" style="stop-color:#2E303D"/>
					<stop  offset="1" style="stop-color:#72778A"/>
				</linearGradient>
				<polygon class="st37" points="176.9,419.5 174.7,419.5 157.1,334.5 161.6,334.5 				"/>
				<linearGradient id="SVGID_33_" gradientUnits="userSpaceOnUse" x1="63.0883" y1="376.9749" x2="82.8302" y2="376.9749">
					<stop  offset="0" style="stop-color:#2E303D"/>
					<stop  offset="1" style="stop-color:#72778A"/>
				</linearGradient>
				<polygon class="st38" points="63.1,419.5 65.2,419.5 82.8,334.5 78.4,334.5 				"/>
			</g>
		</g>
	</g>
	<g>
		<polyline class="st39" points="338.4,175.6 384.9,109 441.3,127.1 		"/>
		<ellipse transform="matrix(0.923 -0.3847 0.3847 0.923 -12.3806 156.1905)" class="st40" cx="384.2" cy="109" rx="8.7" ry="8.7"/>
		<path class="st40" d="M343,175.6c0,2.6-2.1,4.7-4.7,4.7c-2.6,0-4.7-2.1-4.7-4.7s2.1-4.7,4.7-4.7C341,171,343,173.1,343,175.6z"/>
		<path class="st40" d="M446,127.1c0,2.6-2.1,4.7-4.7,4.7c-2.6,0-4.7-2.1-4.7-4.7c0-2.6,2.1-4.7,4.7-4.7
			C443.9,122.5,446,124.5,446,127.1z"/>
	</g>
	<g>
		<polyline class="st41" points="230.4,62.3 217.9,79.8 193.2,59.6 		"/>
		<path class="st40" d="M213.3,78.5c0.8-2.8,3.7-4.4,6.5-3.6c2.8,0.8,4.4,3.7,3.6,6.5c-0.8,2.8-3.7,4.4-6.5,3.6
			C214.1,84.1,212.5,81.2,213.3,78.5z"/>
		
			<ellipse transform="matrix(0.8753 -0.4836 0.4836 0.8753 -1.3915 119.1984)" class="st40" cx="230.4" cy="62.3" rx="3.7" ry="3.7"/>
		<path class="st40" d="M190.6,58.8c0.4-1.4,1.9-2.3,3.4-1.9c1.4,0.4,2.3,1.9,1.9,3.4c-0.4,1.4-1.9,2.3-3.4,1.9
			C191,61.8,190.2,60.2,190.6,58.8z"/>
	</g>
	<g>
		<g>
			<line class="st42" x1="111.5" y1="241" x2="109.3" y2="241"/>
			<line class="st43" x1="104.9" y1="241" x2="72.5" y2="241"/>
			<polyline class="st42" points="70.3,241 68.1,241 68.1,238.8 			"/>
			<line class="st44" x1="68.1" y1="234.1" x2="68.1" y2="115"/>
			<polyline class="st42" points="68.1,112.7 68.1,110.4 70.3,110.4 			"/>
			<line class="st45" x1="74.6" y1="110.4" x2="132.7" y2="110.4"/>
			<line class="st42" x1="134.9" y1="110.4" x2="137.1" y2="110.4"/>
		</g>
	</g>
	<path class="st40" d="M464.2,166c0-1-0.1-2.1-0.6-3.1c-1.4-3.2-4.9-4.8-8.2-4c-1.7-2.3-4.3-3.8-7.4-3.8c-0.3,0-0.7,0-1,0.1
		c-1.9-3.8-5.8-6.4-10.3-6.4c-3.9,0-7.4,1.9-9.5,4.9c-1.1-0.4-2.2-0.6-3.4-0.6c-5.4,0-9.7,4.3-9.7,9.7c0,1.1,0.2,2.1,0.5,3.1H464.2z
		"/>
	<path class="st40" d="M211.9,121.5c1-2.3,1-4.9,0-7.3c-1.9-4.3-6.8-6.4-11.2-5c-2.7-3.8-7.2-6.3-12.2-6.3c-2,0-3.9,0.4-5.7,1.1
		c-1.4-6.9-7.5-12-14.7-12c-7.1,0-13,4.9-14.6,11.5c-1.2-0.4-2.4-0.6-3.7-0.6c-7,0-12.6,5.7-12.6,12.6c0,2.2,0.5,4.2,1.5,6H211.9z"
		/>
	<g>
		<g>
			<line class="st39" x1="272.4" y1="110.4" x2="262.6" y2="110.4"/>
			<line class="st39" x1="267.5" y1="105.5" x2="267.5" y2="115.3"/>
		</g>
		<g>
			<line class="st39" x1="153.3" y1="69.7" x2="147.3" y2="69.7"/>
			<line class="st39" x1="150.3" y1="66.7" x2="150.3" y2="72.7"/>
		</g>
		<g>
			<line class="st39" x1="379.8" y1="66.7" x2="373.9" y2="66.7"/>
			<line class="st39" x1="376.8" y1="63.7" x2="376.8" y2="69.7"/>
		</g>
		<g>
			<line class="st46" x1="420.3" y1="198.9" x2="415.4" y2="198.9"/>
			<line class="st46" x1="417.8" y1="196.4" x2="417.8" y2="201.3"/>
		</g>
		<g>
			<line class="st46" x1="301.6" y1="130.8" x2="296.7" y2="130.8"/>
			<line class="st46" x1="299.1" y1="128.3" x2="299.1" y2="133.2"/>
		</g>
		<g>
			<line class="st46" x1="107.2" y1="135.3" x2="102.3" y2="135.3"/>
			<line class="st46" x1="104.8" y1="132.8" x2="104.8" y2="137.7"/>
		</g>
		<circle class="st39" cx="80.2" cy="77" r="3.6"/>
		<circle class="st39" cx="439.2" cy="82.5" r="5.6"/>
		<path class="st39" d="M240.8,138.9c0,2-1.6,3.6-3.6,3.6c-2,0-3.6-1.6-3.6-3.6c0-2,1.6-3.6,3.6-3.6
			C239.1,135.3,240.8,136.9,240.8,138.9z"/>
		<circle class="st46" cx="37.2" cy="214.9" r="1.8"/>
	</g>
	<g>
		<path class="st40" d="M321,80c-5.9,4.7-6.9,13.3-2.2,19.2c4.7,5.9,13.3,6.9,19.2,2.2c5.9-4.7,6.9-13.3,2.2-19.2
			C335.5,76.3,326.9,75.3,321,80z M336.2,99.1c-4.6,3.7-11.4,2.9-15.1-1.7c-3.7-4.6-2.9-11.4,1.7-15.1c4.6-3.7,11.4-2.9,15.1,1.7
			C341.6,88.7,340.8,95.4,336.2,99.1z"/>
		<path class="st40" d="M347.9,113.8L347.9,113.8c-0.8,0.7-2.1,0.5-2.7-0.3l-9.4-11.9l3-2.4l9.4,11.9
			C348.8,111.9,348.7,113.1,347.9,113.8z"/>
		<path class="st40" d="M350.7,117.4L350.7,117.4c-1.2,0.9-2.8,0.7-3.8-0.4l-9.2-11.5l4.2-3.3l9.2,11.5
			C352,114.8,351.8,116.4,350.7,117.4z"/>
	</g>
	<g>
		<path class="st47" d="M229.2,295.2c0.6,1.2,0.1,2.7-1.1,3.3c-1.2,0.6-2.7,0.1-3.3-1.1c-0.6-1.2-0.1-2.7,1.1-3.3
			C227.1,293.4,228.6,293.9,229.2,295.2z"/>
	</g>
	<path class="st48" d="M227.4,304.3h-1.2c-1.1,0-1.9-0.9-1.9-1.9l0,0c0-1.1,0.9-1.9,1.9-1.9h1.2c1.1,0,1.9,0.9,1.9,1.9l0,0
		C229.3,303.4,228.4,304.3,227.4,304.3z"/>
	<path class="st49" d="M331.9,170.6c0,0-29-1.3-35.4,38.4c-3.6,15-15.8,36.1-40.6,40.5c-24.9,4.4-40.7,13.2-49.5,45.8
		c-2.7,6.6-12.1,27.3-35.2,26c91.6,0,211,0,211,0V170.6H331.9z"/>
	<path class="st50" d="M370.2,302.4c0,1.1-25,1.9-55.9,1.9c-30.9,0-55.9-0.9-55.9-1.9c0-1.1,25-1.9,55.9-1.9
		C345.1,300.4,370.2,301.3,370.2,302.4z"/>
	<path class="st51" d="M325.5,311c0,0.8-21.8,1.4-48.8,1.4s-48.8-0.6-48.8-1.4c0-0.8,21.8-1.4,48.8-1.4S325.5,310.3,325.5,311z"/>
	<path class="st52" d="M341.6,288c0,0.1,0,0.1,0,0.2c0-0.1,0-0.2,0-0.4c0.3-0.9,0.6-1.9,1-2.8c0.1-0.2,0.2-0.4,0.2-0.5
		c0.4-0.2,1.5-0.3,1.7-0.3c0.6-0.2,1.3-0.4,1.7-0.8c0.2-0.2,0.7-0.7,0.4-1c-0.3-0.3-1.2,0.3-1.5,0.5c-0.5,0.4-1,0.8-1.6,1.1
		c-0.3,0.1-0.5,0.2-0.8,0.4c0.4-0.8,0.8-1.6,1.2-2.3c0.4-0.2,1.5-0.3,1.7-0.4c0.6-0.2,1.3-0.4,1.7-0.8c0.2-0.2,0.7-0.7,0.4-1
		c-0.3-0.3-1.2,0.3-1.5,0.5c-0.5,0.4-1,0.8-1.6,1.1c-0.3,0.1-0.5,0.2-0.8,0.4c0.5-0.8,1-1.5,1.6-2.3c0.4-0.5,0.8-1,1.3-1.4
		c0.5,0,1.2,0.1,1.4,0.1c0.6,0,1.3,0,1.9-0.3c0.2-0.1,0.8-0.5,0.7-0.8c-0.2-0.4-1.3,0-1.6,0.1c-0.6,0.2-1.2,0.5-1.8,0.6
		c-0.1,0-0.2,0-0.3,0.1c0.6-0.6,1.3-1.1,2-1.6c0.2,0,0.4,0.1,0.6,0.1c0.5,0.1,1,0.3,1.6,0.4c0.2,0.1,1.2,0.3,1.3,0
		c0.1-0.3-0.4-0.6-0.6-0.7c-0.5-0.2-1.1-0.1-1.6-0.1c-0.2,0-0.7,0.1-1.1,0.2c0.3-0.2,0.7-0.4,1-0.7c0.5-0.3,1.1-0.6,1.7-0.9
		c0.2,0.1,0.5,0.1,0.8,0.1c0.5,0.1,1,0.3,1.6,0.4c0.2,0.1,1.2,0.3,1.3,0c0.1-0.3-0.4-0.6-0.6-0.7c-0.5-0.2-1.1-0.1-1.6-0.1
		c-0.2,0-0.9,0.2-1.3,0.2c0.8-0.3,1.6-0.6,2.4-0.8c0.2,0.1,0.5,0.1,0.7,0.1c0.5,0.1,1.1,0.3,1.6,0.4c0.2,0.1,1.2,0.3,1.3-0.1
		c0.1-0.3-0.4-0.6-0.6-0.7c-0.5-0.2-1.1-0.1-1.6-0.1c-0.1,0-0.2,0-0.3,0c-0.4,0-0.9,0.1-1.3,0.2c0,0,0,0,0,0c0,0,0,0,0,0
		c-0.6,0.1-1.2,0.3-1.7,0.5c0.2-0.1,0.3-0.3,0.5-0.5c0.4-0.4,0.8-0.7,1.3-1c0.2-0.2,0.9-0.8,0.8-1.1c-0.2-0.3-0.7,0-0.9,0.1
		c-0.4,0.3-0.8,0.8-1.1,1.2c-0.1,0.2-0.5,1-0.7,1.3c-0.5,0.2-1.1,0.4-1.6,0.6c0.2-0.2,0.3-0.4,0.5-0.6c0.3-0.4,0.7-0.8,1.1-1.2
		c0.2-0.2,0.8-0.9,0.6-1.2c-0.2-0.2-0.7,0.1-0.9,0.2c-0.4,0.3-0.6,0.9-0.9,1.4c-0.1,0.2-0.3,1.2-0.5,1.5c-0.2,0.1-0.4,0.2-0.6,0.3
		c-0.8,0.5-1.6,1-2.4,1.6c0-0.2,0.1-0.3,0.1-0.5c0.1-0.5,0.4-1,0.5-1.6c0.1-0.2,0.4-1.2,0.1-1.4c-0.3-0.1-0.6,0.4-0.7,0.6
		c-0.2,0.5-0.2,1.1-0.3,1.6c0,0.2,0.1,0.9,0.1,1.3c-0.7,0.6-1.4,1.2-2,1.9c0.1-0.2,0.1-0.4,0.2-0.5c0.1-0.4,0.3-0.8,0.5-1.2
		c0.3-0.6,0.6-1.2,1.1-1.7c0.2-0.3,0-0.7-0.3-0.6c0,0,0,0,0,0c-0.5,0.2-0.8,0.7-1,1.3c-0.2,0.4-1,2.5-0.7,3.2
		c-0.7,0.8-1.3,1.7-1.8,2.6c0.1-0.5,0.4-1,0.5-1.5c0.1-0.2,0.4-1.2,0.1-1.4c-0.3-0.1-0.6,0.4-0.7,0.6c-0.2,0.5-0.2,1.1-0.3,1.6
		c0,0.2,0.1,0.7,0.1,1.2c-0.4,0.8-0.8,1.5-1.1,2.3c0-0.1,0-0.2,0-0.3c0-0.6,0.1-1.1,0.1-1.6c0-0.2,0.1-1.3-0.3-1.3
		c-0.3-0.1-0.5,0.5-0.5,0.7c-0.1,0.5,0.1,1.1,0.1,1.7c0,0.2,0.3,0.8,0.4,1.3c-0.2,0.6-0.4,1.2-0.6,1.9c0-0.5,0-1,0-1.5
		c0-0.2,0-1.3-0.4-1.3c-0.3,0-0.5,0.5-0.5,0.8c0,0.5,0.1,1.1,0.3,1.6c0,0.2,0.3,0.6,0.4,1c-0.3,1.2-1.5,2.3-1.5,3.5
		C340.1,290,341.4,289,341.6,288z"/>
	<path class="st52" d="M280.7,265.3c0,0.1,0,0.1,0,0.2c-0.1-0.1-0.1-0.2-0.2-0.3c-0.6-0.8-1.2-1.5-1.9-2.2c-0.1-0.1-0.3-0.3-0.4-0.4
		c-0.5,0-1.4,0.3-1.7,0.3c-0.6,0-1.3,0.1-1.9-0.1c-0.2-0.1-0.9-0.4-0.7-0.8c0.1-0.4,1.3-0.2,1.6-0.1c0.6,0.1,1.2,0.4,1.8,0.4
		c0.3,0,0.6,0,0.9,0.1c-0.6-0.6-1.3-1.2-2-1.7c-0.4,0-1.5,0.3-1.8,0.3c-0.6,0-1.3,0.1-1.9-0.1c-0.2-0.1-0.9-0.4-0.7-0.8
		c0.1-0.4,1.3-0.2,1.6-0.1c0.6,0.1,1.2,0.4,1.8,0.4c0.3,0,0.6,0,0.9,0.1c-0.7-0.6-1.5-1.1-2.3-1.5c-0.6-0.3-1.1-0.6-1.7-0.8
		c-0.5,0.2-1.1,0.6-1.3,0.6c-0.6,0.2-1.3,0.4-1.8,0.4c-0.2,0-0.9-0.2-0.9-0.5c0-0.4,1.2-0.5,1.5-0.5c0.6,0,1.3,0,1.9-0.1
		c0.1,0,0.2,0,0.3-0.1c-0.8-0.3-1.6-0.6-2.4-0.8c-0.2,0.1-0.4,0.2-0.6,0.3c-0.5,0.3-0.9,0.6-1.3,1c-0.2,0.1-1,0.7-1.3,0.4
		c-0.2-0.2,0.2-0.7,0.3-0.8c0.4-0.3,1-0.5,1.5-0.7c0.2-0.1,0.7-0.1,1.1-0.2c-0.4-0.1-0.8-0.2-1.2-0.2c-0.6-0.1-1.3-0.2-1.9-0.2
		c-0.2,0.2-0.5,0.3-0.7,0.4c-0.5,0.3-0.9,0.6-1.3,1c-0.2,0.1-1,0.7-1.3,0.4c-0.2-0.2,0.2-0.7,0.3-0.8c0.4-0.3,1-0.5,1.5-0.7
		c0.2-0.1,0.9-0.2,1.3-0.3c-0.8,0-1.7,0-2.5,0.1c-0.2,0.1-0.4,0.2-0.6,0.3c-0.5,0.3-0.9,0.6-1.3,0.9c-0.2,0.1-1,0.7-1.3,0.4
		c-0.2-0.2,0.2-0.7,0.4-0.8c0.4-0.3,1-0.5,1.5-0.7c0.1,0,0.2,0,0.3-0.1c0.4-0.1,0.8-0.2,1.3-0.3c0,0,0,0,0,0c0,0,0,0,0,0
		c0.6-0.1,1.2-0.2,1.8-0.2c-0.2-0.1-0.4-0.2-0.6-0.3c-0.5-0.2-1-0.3-1.5-0.5c-0.2-0.1-1.2-0.4-1.1-0.8c0.1-0.3,0.7-0.3,0.9-0.2
		c0.5,0.1,1,0.5,1.4,0.8c0.2,0.1,0.8,0.8,1.1,1c0.6,0,1.1,0,1.7,0c-0.2-0.1-0.4-0.3-0.7-0.4c-0.4-0.3-1-0.5-1.4-0.7
		c-0.2-0.1-1.1-0.6-1-0.9c0.1-0.3,0.7-0.2,0.9-0.1c0.5,0.2,0.9,0.6,1.3,1c0.2,0.2,0.7,1,1,1.2c0.2,0,0.5,0,0.7,0.1
		c0.9,0.1,1.9,0.3,2.8,0.6c-0.1-0.1-0.2-0.3-0.3-0.4c-0.3-0.5-0.7-0.8-1.1-1.3c-0.2-0.2-0.8-1-0.5-1.2c0.2-0.2,0.7,0.1,0.9,0.3
		c0.4,0.4,0.6,1,0.8,1.4c0.1,0.2,0.2,0.8,0.4,1.3c0.9,0.3,1.7,0.6,2.6,1.1c-0.1-0.1-0.2-0.3-0.3-0.4c-0.3-0.3-0.6-0.6-0.9-0.9
		c-0.5-0.5-1-0.9-1.6-1.2c-0.3-0.2-0.2-0.6,0.1-0.7c0,0,0,0,0,0c0.6,0,1,0.4,1.4,0.8c0.3,0.3,1.9,2,1.8,2.7c0.9,0.5,1.8,1.1,2.6,1.8
		c-0.3-0.4-0.7-0.8-1-1.2c-0.2-0.2-0.8-1-0.5-1.2c0.2-0.2,0.7,0.1,0.8,0.3c0.4,0.4,0.6,1,0.8,1.4c0.1,0.2,0.2,0.7,0.3,1.1
		c0.6,0.6,1.2,1.2,1.8,1.8c0-0.1-0.1-0.2-0.1-0.3c-0.2-0.5-0.5-1-0.7-1.5c-0.1-0.2-0.5-1.1-0.2-1.3c0.3-0.2,0.6,0.3,0.8,0.5
		c0.3,0.4,0.4,1.1,0.4,1.6c0,0.2,0,0.9,0.1,1.3c0.4,0.5,0.8,1,1.2,1.5c-0.1-0.5-0.4-0.9-0.5-1.4c-0.1-0.2-0.4-1.2-0.1-1.4
		c0.3-0.2,0.6,0.3,0.7,0.5c0.2,0.5,0.3,1.1,0.3,1.6c0,0.2,0,0.6,0,1c0.7,1,2.2,1.6,2.7,2.8C282.8,266.6,281.3,266.2,280.7,265.3z"/>
	<path class="st52" d="M290,272.7c0,0.1,0.1,0.1,0.1,0.1c-0.1-0.1-0.2-0.2-0.3-0.3c-0.8-0.6-1.6-1.1-2.4-1.6
		c-0.2-0.1-0.3-0.2-0.5-0.3c-0.4,0.1-1.3,0.7-1.6,0.8c-0.6,0.2-1.2,0.5-1.8,0.5c-0.2,0-0.9-0.1-0.9-0.5c0-0.4,1.2-0.5,1.5-0.5
		c0.6,0,1.3,0,1.9-0.1c0.3-0.1,0.6-0.1,0.9-0.1c-0.8-0.4-1.6-0.8-2.4-1.1c-0.4,0.1-1.3,0.7-1.6,0.8c-0.6,0.2-1.2,0.5-1.8,0.5
		c-0.2,0-0.9-0.1-0.9-0.5c0-0.4,1.2-0.5,1.5-0.5c0.6,0,1.3,0,1.9-0.1c0.3-0.1,0.6-0.1,0.8-0.1c-0.9-0.3-1.7-0.6-2.6-0.8
		c-0.6-0.1-1.2-0.2-1.9-0.3c-0.4,0.3-0.9,0.8-1,1c-0.5,0.3-1.1,0.8-1.7,0.9c-0.2,0.1-0.9,0.1-1-0.3c-0.1-0.4,1-0.8,1.3-0.9
		c0.6-0.2,1.2-0.3,1.8-0.6c0.1,0,0.2-0.1,0.3-0.2c-0.8-0.1-1.7-0.1-2.5-0.1c-0.1,0.2-0.3,0.3-0.5,0.5c-0.4,0.4-0.7,0.9-1,1.3
		c-0.2,0.2-0.8,1-1.1,0.8c-0.3-0.2,0-0.7,0.1-0.9c0.3-0.4,0.8-0.8,1.2-1.1c0.1-0.1,0.6-0.3,1-0.5c-0.4,0-0.8,0.1-1.2,0.1
		c-0.6,0.1-1.3,0.2-1.9,0.4c-0.1,0.2-0.4,0.4-0.5,0.6c-0.4,0.4-0.7,0.9-1,1.3c-0.2,0.2-0.8,1-1.1,0.8c-0.3-0.2,0-0.7,0.1-0.9
		c0.3-0.4,0.8-0.8,1.2-1.1c0.2-0.1,0.8-0.4,1.2-0.6c-0.8,0.2-1.6,0.5-2.4,0.8c-0.1,0.2-0.3,0.3-0.5,0.5c-0.4,0.4-0.7,0.9-1,1.3
		c-0.2,0.2-0.8,1-1.1,0.8c-0.3-0.2,0-0.7,0.1-0.9c0.3-0.4,0.8-0.8,1.2-1.1c0.1,0,0.2-0.1,0.3-0.2c0.4-0.2,0.8-0.5,1.1-0.7
		c0,0,0,0,0,0c0,0,0,0,0,0c0.5-0.3,1.1-0.5,1.6-0.7c-0.2,0-0.4-0.1-0.6-0.1c-0.5-0.1-1.1,0-1.6,0c-0.2,0-1.2-0.1-1.3-0.4
		c0-0.3,0.6-0.5,0.8-0.5c0.5,0,1.1,0.2,1.6,0.3c0.2,0.1,1,0.5,1.4,0.6c0.5-0.2,1.1-0.3,1.6-0.5c-0.3,0-0.5-0.1-0.7-0.2
		c-0.5-0.2-1.1-0.2-1.6-0.3c-0.2,0-1.2-0.2-1.2-0.6c0-0.3,0.6-0.4,0.8-0.3c0.5,0,1.1,0.4,1.5,0.6c0.2,0.1,1,0.7,1.3,0.9
		c0.2,0,0.4-0.1,0.7-0.1c0.9-0.2,1.9-0.2,2.8-0.2c-0.1-0.1-0.2-0.2-0.4-0.3c-0.4-0.4-0.9-0.6-1.4-0.9c-0.2-0.1-1-0.7-0.9-1
		c0.1-0.3,0.7-0.1,0.9,0c0.4,0.2,0.9,0.7,1.2,1.1c0.1,0.2,0.5,0.7,0.7,1.1c0.9,0,1.8,0.1,2.7,0.3c-0.1-0.1-0.3-0.2-0.4-0.3
		c-0.4-0.2-0.7-0.5-1.1-0.6c-0.6-0.3-1.2-0.5-1.9-0.7c-0.3-0.1-0.4-0.5-0.1-0.7c0,0,0,0,0,0c0.5-0.2,1.1,0.1,1.6,0.4
		c0.4,0.2,2.4,1.4,2.5,2.1c1,0.2,2,0.6,3,1c-0.4-0.3-0.9-0.6-1.3-0.9c-0.2-0.1-1-0.7-0.9-1c0.1-0.3,0.7-0.1,0.9,0
		c0.4,0.2,0.9,0.7,1.2,1.1c0.1,0.1,0.4,0.6,0.6,1c0.8,0.3,1.5,0.7,2.2,1.2c-0.1-0.1-0.1-0.2-0.2-0.3c-0.3-0.4-0.7-0.8-1.1-1.2
		c-0.2-0.2-0.8-0.9-0.6-1.2c0.2-0.2,0.7,0.1,0.9,0.2c0.4,0.4,0.6,0.9,0.9,1.4c0.1,0.2,0.3,0.8,0.4,1.3c0.5,0.4,1.1,0.7,1.6,1.1
		c-0.3-0.4-0.6-0.8-0.9-1.1c-0.1-0.2-0.7-1-0.5-1.3c0.2-0.2,0.7,0.1,0.8,0.3c0.3,0.4,0.6,1,0.8,1.5c0.1,0.2,0.2,0.6,0.3,1
		c0.9,0.8,2.5,0.9,3.3,1.9C292.4,273.3,290.8,273.3,290,272.7z"/>
	<path class="st53" d="M331.2,283.3c0,0-0.1-2.4,3.2-4.8c3.4-2.6,10.9-2.5,11.7-5c0.9-2.6-3.8-1.9-5.9-3.7c-2.1-1.9-2.8-2.7,0-3.4
		c2.8-0.6,4.5-0.9,4.4-3.3c-0.1-2.4,4.6-1.4,6.8-3.2c2.3-1.8,0.9-4.1-3.6-3.8c-4.4,0.4-4.6-0.3-3.4-1.1c1.2-0.7,5.1-2.1,3.4-3.2
		c-1.7-1.2-4.2,0-2.9-1.6c1.2-1.6,4.3-2.8,2.7-4.5c-1.6-1.7-5.5-1.4-7.5,3.1c-2,4.5-2.7,5.7-4.8,6.3c-2.1,0.6-4.1-1.7-6.7-0.6
		c-2.5,1.1-1.9,3.5-0.4,5.1c1.6,1.6,4.3,4.8,2.8,6.3c-1.5,1.5-3.4-0.6-5.6-0.9c-2.5-0.4-5.2,1.9-2.8,5.3c2.5,3.3,6.3,5.8,6.7,13.7
		C330,283.8,330.6,283.5,331.2,283.3z"/>
	<g>
		<g class="st54">
			<path class="st55" d="M330.2,283.8c0.1,0,0.1,0,0.1-0.1c5.1-27.3,15.3-37.6,15.4-37.7c0.1-0.1,0.1-0.1,0-0.2
				c-0.1-0.1-0.1-0.1-0.2,0c-0.1,0.1-10.4,10.5-15.5,37.9C330,283.8,330.1,283.8,330.2,283.8C330.2,283.8,330.2,283.8,330.2,283.8z"
				/>
		</g>
		<g class="st54">
			<path class="st55" d="M339.6,254.9C339.7,254.9,339.7,254.9,339.6,254.9c3.4-2.4,7.3-2.4,7.3-2.4c0.1,0,0.1-0.1,0.1-0.1
				c0-0.1-0.1-0.1-0.1-0.1c0,0-4,0.1-7.4,2.5C339.5,254.7,339.5,254.7,339.6,254.9C339.6,254.8,339.6,254.9,339.6,254.9z"/>
		</g>
		<g class="st54">
			<path class="st55" d="M336,262.8C336,262.8,336.1,262.8,336,262.8c0.2-0.1,0.2-0.2,0.1-0.2c0,0-3.2-3.7-7.4-6.9
				c-0.1,0-0.1,0-0.2,0c0,0.1,0,0.1,0,0.2C332.7,259.1,335.9,262.8,336,262.8C335.9,262.8,336,262.8,336,262.8z"/>
		</g>
		<g class="st54">
			<path class="st55" d="M336.7,261.1C336.7,261.1,336.8,261.1,336.7,261.1c6.2-2.5,13.1-2.5,13.2-2.5c0.1,0,0.1-0.1,0.1-0.1
				c0-0.1-0.1-0.1-0.1-0.1c-0.1,0-7,0.1-13.2,2.5c-0.1,0-0.1,0.1-0.1,0.2C336.6,261,336.7,261.1,336.7,261.1z"/>
		</g>
		<g class="st54">
			<path class="st55" d="M332.1,275.2C332.1,275.2,332.1,275.2,332.1,275.2c4.3-2,11.4-2.3,11.5-2.3c0.1,0,0.1-0.1,0.1-0.1
				c0-0.1-0.1-0.1-0.1-0.1c-0.1,0-7.2,0.3-11.5,2.3c-0.1,0-0.1,0.1-0.1,0.2C332,275.2,332,275.2,332.1,275.2z"/>
		</g>
		<g class="st54">
			<path class="st55" d="M331.6,277.1C331.6,277.1,331.6,277.1,331.6,277.1c0.1,0,0.2-0.1,0.1-0.2c-1.9-5.4-7-9.6-7.1-9.6
				c-0.1,0-0.1,0-0.2,0c0,0.1,0,0.1,0,0.2c0.1,0,5.1,4.2,7,9.5C331.5,277.1,331.5,277.1,331.6,277.1z"/>
		</g>
	</g>
	<path class="st53" d="M290.7,274.6c0,0,0.1-2.4-3.2-4.8c-3.4-2.6-10.9-2.5-11.7-5c-0.9-2.6,3.8-1.9,5.9-3.7c2.1-1.9,2.8-2.7,0-3.4
		c-2.8-0.6-4.5-0.9-4.4-3.3c0.1-2.4-4.6-1.4-6.8-3.2c-2.3-1.8-0.9-4.1,3.6-3.8c4.4,0.4,4.6-0.3,3.4-1.1c-1.2-0.7-5.1-2.1-3.4-3.2
		c1.7-1.2,4.2,0,2.9-1.6c-1.2-1.6-4.3-2.8-2.7-4.5c1.6-1.7,5.5-1.4,7.5,3.1c2,4.5,2.7,5.7,4.8,6.3c2.1,0.6,4.1-1.7,6.7-0.6
		c2.5,1.1,1.9,3.5,0.4,5.1c-1.6,1.6-4.3,4.8-2.8,6.3c1.5,1.5,3.4-0.6,5.6-0.9c2.5-0.4,5.2,1.9,2.8,5.3c-2.5,3.3-6.3,5.8-6.7,13.7
		C291.9,275.1,291.3,274.8,290.7,274.6z"/>
	<g>
		<g class="st54">
			<path class="st55" d="M291.7,275.1c-0.1,0-0.1,0-0.1-0.1c-5.1-27.3-15.3-37.6-15.4-37.7c-0.1-0.1-0.1-0.1,0-0.2
				c0.1-0.1,0.1-0.1,0.2,0c0.1,0.1,10.4,10.5,15.5,37.9C291.9,275,291.8,275.1,291.7,275.1C291.8,275.1,291.8,275.1,291.7,275.1z"/>
		</g>
		<g class="st54">
			<path class="st55" d="M282.3,246.2C282.2,246.2,282.2,246.1,282.3,246.2c-3.4-2.4-7.3-2.4-7.3-2.4c-0.1,0-0.1-0.1-0.1-0.1
				c0-0.1,0.1-0.1,0.1-0.1c0,0,4,0.1,7.4,2.5C282.4,246,282.4,246,282.3,246.2C282.3,246.1,282.3,246.1,282.3,246.2z"/>
		</g>
		<g class="st54">
			<path class="st55" d="M285.9,254.1C285.9,254.1,285.8,254.1,285.9,254.1c-0.2-0.1-0.2-0.2-0.1-0.2c0,0,3.2-3.7,7.4-6.9
				c0.1,0,0.1,0,0.2,0c0,0.1,0,0.1,0,0.2C289.2,250.4,286,254,285.9,254.1C286,254.1,285.9,254.1,285.9,254.1z"/>
		</g>
		<g class="st54">
			<path class="st55" d="M285.2,252.4C285.2,252.4,285.1,252.4,285.2,252.4c-6.2-2.5-13.1-2.5-13.2-2.5c-0.1,0-0.1-0.1-0.1-0.1
				c0-0.1,0.1-0.1,0.1-0.1c0.1,0,7,0.1,13.2,2.5c0.1,0,0.1,0.1,0.1,0.2C285.3,252.3,285.2,252.4,285.2,252.4z"/>
		</g>
		<g class="st54">
			<path class="st55" d="M289.9,266.5C289.8,266.5,289.8,266.5,289.9,266.5c-4.3-2-11.4-2.3-11.5-2.3c-0.1,0-0.1-0.1-0.1-0.1
				c0-0.1,0.1-0.1,0.1-0.1c0.1,0,7.2,0.3,11.5,2.3c0.1,0,0.1,0.1,0.1,0.2C289.9,266.5,289.9,266.5,289.9,266.5z"/>
		</g>
		<g class="st54">
			<path class="st55" d="M290.3,268.4C290.3,268.4,290.3,268.4,290.3,268.4c-0.1,0-0.2-0.1-0.1-0.2c1.9-5.4,7-9.6,7.1-9.6
				c0.1,0,0.1,0,0.2,0c0,0.1,0,0.1,0,0.2c-0.1,0-5.1,4.2-7,9.5C290.4,268.4,290.4,268.4,290.3,268.4z"/>
		</g>
	</g>
	<path class="st52" d="M329.5,287.2c0,0-0.2-9.7,7.3-10.6c7.5-0.9,4.8,10.2,1.6,13.8c0,0,4.2-5,7-1.6c2.8,3.4-5,7.3-5,7.3
		s6.3-2.2,8-0.7c2.2,1.9-2,4.6-2,4.6s6.8-2.7,5.3,2.1l-32.2-0.1L329.5,287.2z"/>
	<path class="st48" d="M332.4,218v77.7c0,3.6-2.8,6.5-6.3,6.5h-31.3c-3.5,0-6.3-2.9-6.3-6.5V218c0-3.6,2.8-6.5,6.3-6.5h31.3
		C329.6,211.5,332.4,214.4,332.4,218z"/>
	<path class="st47" d="M332.4,218v1.1h-44V218c0-3.6,2.8-6.5,6.3-6.5h31.3C329.6,211.5,332.4,214.4,332.4,218z"/>
	<path class="st47" d="M332.4,294.6v1.1c0,3.6-2.8,6.5-6.4,6.5h-31.3c-3.5,0-6.3-2.9-6.3-6.5v-1.1H332.4z"/>
	<path class="st47" d="M332.6,247.1h-0.2V230h0.2c0.6,0,1,0.5,1,1V246C333.6,246.6,333.2,247.1,332.6,247.1z"/>
	<path class="st47" d="M288.4,238h-0.2c-0.5,0-1-0.4-1-1v-6.4c0-0.5,0.4-1,1-1h0.2V238z"/>
	<path class="st47" d="M288.4,247.1h-0.1c-0.5,0-0.8-0.4-0.8-0.8v-3.5c0-0.5,0.4-0.8,0.8-0.8h0.1V247.1z"/>
	<path class="st5" d="M304.1,215.3c0,0.7-0.6,1.3-1.3,1.3c-0.7,0-1.3-0.6-1.3-1.3c0-0.7,0.6-1.3,1.3-1.3
		C303.5,214,304.1,214.6,304.1,215.3z"/>
	<path class="st5" d="M306.8,215.3c0,0.3-0.3,0.6-0.6,0.6c-0.3,0-0.6-0.3-0.6-0.6c0-0.3,0.3-0.6,0.6-0.6
		C306.5,214.7,306.8,214.9,306.8,215.3z"/>
	<path class="st5" d="M319.2,216H309c-0.4,0-0.6-0.3-0.6-0.6v-0.2c0-0.4,0.3-0.6,0.6-0.6h10.3c0.4,0,0.6,0.3,0.6,0.6v0.2
		C319.9,215.8,319.6,216,319.2,216z"/>
	<path class="st5" d="M312.8,298.4c0,1.4-1.1,2.5-2.4,2.5c-1.3,0-2.4-1.1-2.4-2.5c0-1.4,1.1-2.5,2.4-2.5
		C311.7,295.9,312.8,297,312.8,298.4z"/>
	<rect x="289.3" y="219.1" class="st56" width="41.8" height="75.6"/>
	<path class="st48" d="M311.2,237.8c-22.5,0-4.9,30.8,0,32.5C315.9,269.1,333.8,237.8,311.2,237.8z M311.2,254.9
		c-3.3,0-6.1-2.8-6.1-6.2c0-3.4,2.7-6.2,6.1-6.2c3.3,0,6.1,2.8,6.1,6.2C317.2,252.2,314.5,254.9,311.2,254.9z"/>
	<path class="st57" d="M320.9,273.2c0,0.5-4.3,0.9-9.7,0.9c-5.4,0-9.7-0.4-9.7-0.9c0-0.5,4.3-0.9,9.7-0.9
		C316.5,272.3,320.9,272.7,320.9,273.2z"/>
	<path class="st58" d="M320.9,273.2c0,0.5-4.3,0.9-9.7,0.9c-5.4,0-9.7-0.4-9.7-0.9c0-0.5,4.3-0.9,9.7-0.9
		C316.5,272.3,320.9,272.7,320.9,273.2z"/>
	<ellipse class="st53" cx="311.2" cy="273.2" rx="5.1" ry="0.4"/>
	<g class="st59">
		<polygon class="st60" points="317,219.1 289.3,262.1 289.3,238.1 301.6,219.1 		"/>
		<polygon class="st60" points="328.6,219.1 289.3,280.3 289.3,269.1 321.5,219.1 		"/>
		<polygon class="st60" points="331.1,244.1 331.1,255.2 305.8,294.7 298.6,294.7 		"/>
	</g>
	<path class="st48" d="M366.5,242.5c0,0-0.1,0.1-0.1,0.2c0,0-0.1,0.1-0.1,0.1c-0.2,0.2-0.4,0.4-0.7,0.7c-0.1,0.1-0.2,0.2-0.3,0.3
		c-0.1,0.1-0.2,0.2-0.3,0.3c0,0-0.1,0.1-0.1,0.1c-0.1,0.1-0.3,0.3-0.4,0.4c-0.2,0.3-0.4,0.5-0.5,0.8c0,0.1-0.1,0.1-0.1,0.2
		c-0.1,0.2-0.2,0.4-0.2,0.5c0,0.1-0.1,0.1-0.1,0.2c0,0,0,0,0,0c0,0.1-0.1,0.1-0.1,0.2c-0.1,0.1-0.2,0.2-0.3,0.3
		c-0.1,0.1-0.2,0.2-0.4,0.2c-0.1,0-0.2,0.1-0.3,0.1c-0.2,0.1-0.5,0.2-0.9,0.2c-0.1,0-0.1,0-0.2,0c-0.5,0-1-0.3-1.3-0.7
		c-0.1-0.1-0.2-0.3-0.2-0.4c-0.3-0.9-1.4-2.2-2.8-3.7c-1.7-1.8-2.2-3.9-2.1-7.1c0-1.2,0.5-2.1,1.2-2.9c0.7-0.8,1.5-1.5,2.5-1.9
		c0.3-0.1,0.6-0.2,0.9-0.3c0.6-0.2,1.3-0.3,2-0.3l0,0c0.4,0,0.8,0,1.2,0.1c1.2,0.1,2.2,0.5,3,1.2c0.3,0.3,0.7,0.6,0.9,0.9
		c0.5,0.6,0.8,1.4,1.2,2.2C369.5,238.4,367.1,241.7,366.5,242.5z"/>
	<path class="st47" d="M366.5,242.5c0,0-0.1,0.1-0.1,0.2c0,0-0.1,0.1-0.1,0.1c-0.2,0.2-0.4,0.4-0.7,0.7c-0.1,0.1-0.2,0.2-0.3,0.3
		c-0.1,0.1-0.2,0.2-0.3,0.3c0,0-0.1,0.1-0.1,0.1c-0.1,0.1-0.3,0.3-0.4,0.4c0,0-0.1,0.1-0.1,0.1c-0.2,0.2-0.3,0.4-0.4,0.6
		c0,0.1-0.1,0.1-0.1,0.2c-0.1,0.2-0.2,0.4-0.2,0.5c0,0.1-0.1,0.1-0.1,0.2c0,0,0,0,0,0c0,0.1-0.1,0.1-0.1,0.2
		c-0.1,0.1-0.2,0.2-0.3,0.3c0.1-1.3,0.7-2.2,1.1-2.8c0.4-0.6,1.9-2.2,2.3-3.4c0.4-1.1,0.8-3.5,0.7-5.2c-0.1-0.9-0.3-2.2-0.6-3.3
		c0.5,0.6,0.8,1.4,1.2,2.2C369.5,238.4,367.1,241.7,366.5,242.5z"/>
	<path class="st47" d="M360.8,246.3L360.8,246.3c-0.2,0-0.3,0.1-0.4,0.1c-0.1,0-0.3,0.1-0.4,0.2c-0.1-0.1,0-0.3-0.1-0.5
		c-0.3-0.9-1.4-2.2-2.8-3.7c-1.7-1.8-3.8-6.6-1-10c0.3-0.3,0.6-0.7,0.9-0.9c0.5-0.4,1-0.7,1.5-0.9c-0.3,0.7-1.2,2.5-1.3,3.9
		c-0.1,1.7,0.2,2.8,0.7,4.1c0.5,1.3,1.4,2.9,1.7,3.4c0.2,0.5,0.8,2.2,1,2.9C360.7,245.7,360.8,246.3,360.8,246.3z"/>
	<path class="st47" d="M366.5,236.4c-0.1,0.5-0.5,2.2-0.7,2.5c-0.1,0.3-1,2.5-1.1,2.8c-0.1,0.3-1,1.8-1.1,2.2
		c-0.2,0.4-0.4,0.9-0.5,1.2c-0.1,0.3-0.2,1.4-0.2,1.4l-0.4-0.1l-0.4-0.1l0-2.8c0,0-0.1-1.5-0.1-2.2c0-0.7,0-2.6,0.1-5.5
		c0-2.3-0.5-4.9-0.7-5.9c0.8,0,1.6,0.1,2.3,0.3c0.7,0.2,1.4,0.5,1.9,1C366.6,232.8,366.6,236,366.5,236.4z"/>
	<path class="st48" d="M366.5,236.4c-0.1,0.5-0.5,2.2-0.7,2.5c-0.1,0.3-1,2.5-1.1,2.8c-0.1,0.3-1,1.8-1.1,2.2
		c-0.2,0.4-0.4,0.9-0.5,1.2c-0.1,0.3-0.2,1.4-0.2,1.4l-0.4-0.1c0.1-0.9,0.4-2.9,0.6-3.3c0.3-0.5,1-2.2,1.8-5.4
		c0.9-3.3-0.4-6.7-1.2-7.5c0.7,0.2,1.4,0.5,1.9,1C366.6,232.8,366.6,236,366.5,236.4z"/>
	<g>
		<g>
			<path class="st61" d="M355,237.8c0.4-0.3,0.7-0.6,1.1-0.9c0.4-0.3,0.8-0.5,1.2-0.7c0.9-0.4,1.8-0.6,2.7-0.8
				c1.9-0.3,3.8,0.1,5.6,0.6c0.5,0.2,0.9,0.3,1.4,0.6c0.4,0.3,0.9,0.5,1.2,0.9c0,0,0.1,0,0.1-0.1c-0.3-0.3-0.6-0.5-1-0.7
				c-0.4-0.2-0.7-0.4-1.1-0.6c-0.9-0.3-1.9-0.6-2.9-0.7c-1.9-0.3-3.9-0.1-5.7,0.6c-0.5,0.2-0.9,0.4-1.4,0.7
				C355.7,237,355.4,237.4,355,237.8C354.9,237.8,354.9,237.8,355,237.8L355,237.8z"/>
		</g>
		<g>
			<path class="st61" d="M355.1,238.4c0.6-0.6,1.3-1,2.1-1.4c0.9-0.4,1.7-0.8,2.7-0.9c1.8-0.3,3.7,0,5.5,0.6c0.5,0.2,1,0.4,1.4,0.6
				c0.2,0.1,0.5,0.3,0.7,0.4c0.2,0.1,0.4,0.2,0.7,0.4c0,0,0.1,0,0.1-0.1c-0.2-0.1-0.4-0.2-0.6-0.3c-0.2-0.1-0.4-0.3-0.7-0.4
				c-0.4-0.2-0.8-0.4-1.3-0.6c-0.9-0.3-1.8-0.6-2.7-0.7c-0.9-0.1-1.9-0.2-2.8,0c-0.9,0.1-1.8,0.4-2.6,0.8
				C356.6,237.1,355.7,237.6,355.1,238.4C355,238.4,355.1,238.4,355.1,238.4L355.1,238.4z"/>
		</g>
		<g>
			<path class="st61" d="M359.2,245c0.8-0.4,1.6-0.6,2.5-0.6c0.8,0,1.8,0,2.5,0.5c0,0,0.1,0,0.1-0.1c-0.8-0.5-1.7-0.5-2.6-0.5
				C360.8,244.4,360,244.5,359.2,245C359.1,245,359.1,245,359.2,245L359.2,245z"/>
		</g>
		<g>
			<path class="st61" d="M359,244.8c0.8-0.5,1.7-0.7,2.7-0.7c0.5,0,0.9,0,1.4,0.1c0.3,0.1,0.5,0.1,0.8,0.2c0.2,0.1,0.4,0.1,0.6,0.2
				c0,0,0.1,0,0-0.1c-0.2-0.1-0.5-0.2-0.7-0.2c-0.2-0.1-0.5-0.1-0.7-0.2c-0.5-0.1-1-0.2-1.5-0.1C360.6,244,359.7,244.2,359,244.8
				C358.9,244.7,358.9,244.8,359,244.8L359,244.8z"/>
		</g>
		<g>
			<path class="st61" d="M359.9,246.7c0,0.8,0.2,1.6,0.2,2.4c0,0,0.1,0,0.1,0C360.2,248.3,360,247.5,359.9,246.7
				C360,246.6,359.9,246.6,359.9,246.7L359.9,246.7z"/>
		</g>
		<g>
			<path class="st61" d="M360.8,247.1c0,0.6,0.1,1.3,0.1,1.9c0,0.1,0.1,0,0.1,0C361,248.3,360.9,247.7,360.8,247.1
				C360.9,247,360.8,247,360.8,247.1L360.8,247.1z"/>
		</g>
		<g>
			<path class="st61" d="M361.9,247.2c0,0.6-0.1,1.2-0.1,1.8c0,0,0.1,0,0.1,0C361.9,248.3,362,247.8,361.9,247.2
				C362,247.1,361.9,247.1,361.9,247.2L361.9,247.2z"/>
		</g>
		<g>
			<path class="st61" d="M363.1,246.7c0,0.4-0.1,0.8-0.2,1.3c-0.1,0.4-0.2,0.8-0.2,1.2c0,0.1,0.1,0,0.1,0c0-0.4,0.1-0.9,0.2-1.3
				C363.2,247.5,363.2,247.1,363.1,246.7C363.2,246.7,363.1,246.7,363.1,246.7L363.1,246.7z"/>
		</g>
		<g>
			<path class="st61" d="M357.4,236.8c0.1,0.3,0.1,0.5,0.1,0.8c0.1,0.3,0.2,0.5,0.3,0.8c0.3,0.7,0.5,1.3,0.8,1.9
				c0.3,0.6,0.7,1.2,1,1.8c0.2,0.3,0.3,0.7,0.4,1c0.1,0.3,0.2,0.7,0.3,1c0,0,0.1,0,0.1,0c-0.1-0.3-0.2-0.6-0.3-0.9
				c-0.1-0.3-0.2-0.7-0.4-1c-0.3-0.6-0.7-1.2-1-1.8c-0.3-0.6-0.6-1.3-0.8-1.9c-0.1-0.3-0.3-0.6-0.4-0.9
				C357.5,237.3,357.5,237,357.4,236.8C357.5,236.8,357.4,236.8,357.4,236.8L357.4,236.8z"/>
		</g>
		<g>
			<path class="st61" d="M362.1,235.8c0,1.4,0,2.8-0.1,4.3c0,1.3,0.1,2.6,0.1,3.9c0,0,0.1,0,0.1,0c0-1.3-0.2-2.6-0.1-3.9
				C362.1,238.6,362.1,237.2,362.1,235.8C362.1,235.8,362.1,235.8,362.1,235.8L362.1,235.8z"/>
		</g>
		<g>
			<path class="st61" d="M366.3,237.1c0,0.2-0.1,0.3-0.1,0.5c-0.1,0.2-0.1,0.3-0.1,0.5c-0.1,0.3-0.2,0.6-0.3,0.9
				c-0.2,0.6-0.4,1.2-0.7,1.8c-0.2,0.6-0.6,1.2-0.9,1.8c-0.3,0.5-0.5,1.1-0.9,1.6c0,0,0.1,0.1,0.1,0c0.3-0.5,0.6-1.1,0.9-1.6
				c0.3-0.6,0.6-1.2,0.9-1.8c0.2-0.6,0.5-1.2,0.7-1.9c0.1-0.3,0.2-0.7,0.3-1C366.3,237.6,366.4,237.3,366.3,237.1
				C366.4,237,366.3,237,366.3,237.1L366.3,237.1z"/>
		</g>
		<g>
			<path class="st61" d="M360.5,244.5c0,0.2,0.1,0.3,0.1,0.4c0,0.2,0.1,0.4,0.1,0.6c0.1,0.3,0.1,0.7,0.1,1c0,0,0.1,0,0.1,0
				c0-0.3,0-0.6-0.1-0.9c0-0.2-0.1-0.4-0.1-0.5C360.6,244.9,360.6,244.7,360.5,244.5C360.6,244.5,360.5,244.5,360.5,244.5
				L360.5,244.5z"/>
		</g>
		<g>
			<path class="st61" d="M362.1,244.4c0,0.4,0,0.8,0,1.3c0,0.1,0,0.3,0,0.4c0,0.1,0,0.3,0,0.3c0,0,0,0.1,0.1,0c0,0,0-0.2,0-0.2
				c0-0.2,0-0.3,0-0.5C362.2,245.3,362.2,244.9,362.1,244.4C362.2,244.4,362.1,244.4,362.1,244.4L362.1,244.4z"/>
		</g>
		<g>
			<path class="st61" d="M363.4,244.5c-0.5,0.6-0.5,1.4-0.6,2.1c0,0.1,0.1,0.1,0.1,0C363,245.9,363,245.1,363.4,244.5
				C363.5,244.5,363.4,244.4,363.4,244.5L363.4,244.5z"/>
		</g>
	</g>
	<path class="st48" d="M363.2,246.8c0,0-0.3,0.6-1.7,0.6c-1.4-0.1-1.6-0.7-1.6-0.7s0.1-0.4,1.5-0.3
		C363.2,246.4,363.2,246.8,363.2,246.8z"/>
	<g>
		<g>
			
				<rect x="358.9" y="249.1" transform="matrix(1.119884e-03 -1 1 1.119884e-03 109.4633 613.2374)" class="st62" width="5.5" height="5.5"/>
			
				<rect x="361.2" y="246.8" transform="matrix(1.133705e-03 -1 1 1.133705e-03 111.7199 610.9798)" class="st63" width="1" height="5.5"/>
			
				<rect x="358.9" y="249" transform="matrix(-1 -1.153392e-03 1.153392e-03 -1 723.1972 499.3235)" class="st62" width="5.7" height="1"/>
			<polygon class="st64" points="361.3,249 361.3,250.6 361.4,250.5 361.5,250.6 361.6,250.5 361.7,250.6 361.8,250.5 361.9,250.6 
				362,250.5 362.1,250.6 362.1,249 			"/>
		</g>
	</g>
	<g class="st65">
		<path class="st66" d="M328.5,311.3c0,0.4,3.6,0.7,8,0.7c4.4,0,8-0.3,8-0.7c0-0.4-3.6-0.7-8-0.7
			C332.1,310.6,328.5,310.9,328.5,311.3z"/>
	</g>
	<g class="st59">
		<path class="st57" d="M254.3,319.8c0,0.4,3.6,0.7,8,0.7c4.4,0,8-0.3,8-0.7c0-0.4-3.6-0.7-8-0.7
			C257.9,319.1,254.3,319.4,254.3,319.8z"/>
	</g>
	<g>
		<g>
			
				<rect x="288.6" y="294.5" transform="matrix(1 -1.121008e-03 1.121008e-03 1 -0.3344 0.3281)" class="st63" width="7.9" height="7.9"/>
			
				<rect x="288.6" y="294.5" transform="matrix(1 -1.124149e-03 1.124149e-03 1 -0.3317 0.329)" class="st63" width="7.9" height="1.4"/>
			
				<rect x="288.4" y="294.4" transform="matrix(1 -1.159641e-03 1.159641e-03 1 -0.342 0.3394)" class="st63" width="8.2" height="1.4"/>
			<polygon class="st63" points="293.2,294.4 293.2,296.7 293,296.5 292.9,296.7 292.7,296.5 292.6,296.7 292.4,296.5 292.3,296.7 
				292.1,296.5 292,296.7 292,294.4 			"/>
		</g>
		<g>
			
				<rect x="289.1" y="294.5" transform="matrix(1 -1.115507e-03 1.115507e-03 1 -0.3328 0.3271)" class="st67" width="7.9" height="7.9"/>
			
				<rect x="289" y="294.5" transform="matrix(1 -1.093766e-03 1.093766e-03 1 -0.3227 0.3207)" class="st63" width="7.9" height="1.4"/>
			
				<rect x="288.9" y="294.4" transform="matrix(1 -1.154248e-03 1.154248e-03 1 -0.3404 0.3383)" class="st67" width="8.2" height="1.4"/>
			<polygon class="st64" points="293.7,294.4 293.7,296.7 293.5,296.5 293.4,296.7 293.2,296.5 293.1,296.7 292.9,296.5 
				292.8,296.7 292.6,296.5 292.5,296.7 292.5,294.4 			"/>
		</g>
	</g>
	<g>
		<g>
			
				<rect x="284.3" y="286.4" transform="matrix(1 -1.115507e-03 1.115507e-03 1 -0.3237 0.3217)" class="st63" width="7.9" height="7.9"/>
			
				<rect x="284.3" y="286.4" transform="matrix(1 -1.124149e-03 1.124149e-03 1 -0.3225 0.3242)" class="st63" width="7.9" height="1.4"/>
			
				<rect x="284.1" y="286.2" transform="matrix(1 -1.154248e-03 1.154248e-03 1 -0.331 0.3328)" class="st63" width="8.2" height="1.4"/>
			<polygon class="st63" points="288.9,286.2 288.9,288.6 288.8,288.4 288.6,288.6 288.5,288.4 288.3,288.6 288.2,288.4 288,288.6 
				287.9,288.4 287.7,288.6 287.7,286.2 			"/>
		</g>
		<g>
			
				<rect x="284.8" y="286.4" transform="matrix(1 -1.116002e-03 1.116002e-03 1 -0.3238 0.3224)" class="st68" width="7.9" height="7.9"/>
			
				<rect x="284.8" y="286.4" transform="matrix(1 -1.124149e-03 1.124149e-03 1 -0.3225 0.3248)" class="st63" width="7.9" height="1.4"/>
			
				<rect x="284.6" y="286.2" transform="matrix(1 -1.159635e-03 1.159635e-03 1 -0.3325 0.335)" class="st68" width="8.2" height="1.4"/>
			<polygon class="st64" points="289.4,286.2 289.4,288.6 289.2,288.4 289.1,288.6 288.9,288.4 288.8,288.6 288.6,288.4 
				288.5,288.6 288.3,288.4 288.2,288.6 288.2,286.2 			"/>
		</g>
	</g>
	<polygon class="st48" points="316.1,311 284.8,303.2 281.3,300.9 321.1,311 	"/>
	<rect x="257.3" y="270.9" class="st48" width="36" height="31.8"/>
	<path class="st48" d="M255.2,275.4l0,0.4l0,0.5l-0.1,11.6v0.1l-13.5,0.1l-8.3,0l0,0l0-0.1l0-0.1l8.2-11.7c0.2-0.3,0.5-0.5,0.9-0.5
		l11.4-1.4C254.5,274.2,255.1,274.7,255.2,275.4z"/>
	<g>
		<path class="st48" d="M255.2,275.8l0,0.5c0-0.3-0.2-0.6-0.4-0.8c-0.2-0.2-0.5-0.3-0.8-0.3l-11,1.3c-0.4,0-0.7,0.3-1,0.6l-7.5,10.7
			l-0.2,0l7.6-10.8c0.3-0.4,0.6-0.6,1.1-0.7l11-1.3c0.3,0,0.7,0.1,0.9,0.3C255,275.5,255.1,275.6,255.2,275.8z"/>
	</g>
	<path class="st69" d="M253.6,277.2v10.6l-4.3,0l-1.6,0l-2.3,0l-2.6,0l-4.6,0l-0.8,0v-1.3c0-0.4,0.1-0.7,0.3-1.1l4.9-7.5
		c0.3-0.4,0.7-0.7,1.2-0.8l1.7-0.2l5.1-0.6l1.9-0.2c0.3,0,0.5,0,0.7,0.2C253.4,276.6,253.6,276.9,253.6,277.2z"/>
	<path class="st48" d="M255.2,287.9V305h-20.5c-2,0-7.9-0.1-7.9-0.1v-8.7c0-4.1,2.7-7.5,6.2-8.2h0c0.1,0,0.2,0,0.3-0.1c0,0,0,0,0,0
		c0.3,0,0.7-0.1,1.1-0.1H255.2z"/>
	<path class="st48" d="M252.4,290.2h-2.5c-0.4,0-0.6-0.3-0.6-0.7l0,0c0-0.4,0.3-0.7,0.6-0.7h2.5c0.4,0,0.6,0.3,0.6,0.7l0,0
		C253,289.9,252.7,290.2,252.4,290.2z"/>
	<path class="st70" d="M253,289.5c0,0.2-0.1,0.3-0.2,0.5c-0.1,0.1-0.3,0.2-0.5,0.2h-2.5c-0.4,0-0.6-0.3-0.6-0.7c0-0.1,0-0.2,0-0.2
		c0.1,0.3,0.3,0.4,0.6,0.4h2.5c0.2,0,0.3-0.1,0.5-0.2c0.1-0.1,0.1-0.1,0.1-0.2C253,289.4,253,289.5,253,289.5z"/>
	<polygon class="st71" points="250.6,276.4 242.7,287.8 238.1,287.8 245.5,277 	"/>
	<path class="st71" d="M253.6,277.2v2l-5.9,8.6l-2.3,0l7.8-11.4C253.4,276.6,253.6,276.9,253.6,277.2z"/>
	<polygon class="st71" points="253.6,281.5 253.6,287.8 249.3,287.8 	"/>
	<path class="st72" d="M275.8,302.4l1.1-1.5c1.1-1.6,3-2.5,4.9-2.5l0,0c1.9,0,3.7,0.9,4.9,2.5l1.1,1.5"/>
	<path class="st47" d="M293.7,305h-66.6c-0.6,0-1.1-0.5-1.1-1.1v-0.4c0-0.6,0.5-1.1,1.1-1.1h66.6c0.6,0,1.1,0.5,1.1,1.1v0.4
		C294.8,304.5,294.3,305,293.7,305z"/>
	<path class="st70" d="M237.2,302.4l1.1-1.5c1.1-1.6,3-2.5,4.9-2.5l0,0c1.9,0,3.7,0.9,4.9,2.5l1.1,1.5"/>
	<ellipse class="st47" cx="243.2" cy="305.3" rx="5.6" ry="5.7"/>
	<ellipse class="st73" cx="243.2" cy="305.3" rx="4.2" ry="4.3"/>
	<ellipse class="st48" cx="243.2" cy="305.3" rx="3.1" ry="3.1"/>
	<ellipse class="st74" cx="243.2" cy="305.3" rx="2.8" ry="2.9"/>
	<path class="st58" d="M244.9,305.3c0,1-0.8,1.8-1.7,1.8c-1,0-1.7-0.8-1.7-1.8c0-1,0.8-1.8,1.7-1.8
		C244.1,303.5,244.9,304.3,244.9,305.3z"/>
	<ellipse class="st51" cx="243.2" cy="305.3" rx="0.6" ry="0.6"/>
	<ellipse class="st53" cx="243.2" cy="305.3" rx="0.7" ry="0.7"/>
	<g>
		<ellipse class="st75" cx="281.8" cy="305.3" rx="5.6" ry="5.7"/>
		<ellipse class="st73" cx="281.8" cy="305.3" rx="4.2" ry="4.3"/>
		<ellipse class="st72" cx="281.8" cy="305.3" rx="3.1" ry="3.1"/>
		<ellipse class="st74" cx="281.8" cy="305.3" rx="2.8" ry="2.9"/>
		<path class="st76" d="M283.5,305.3c0,1-0.8,1.8-1.7,1.8c-1,0-1.7-0.8-1.7-1.8c0-1,0.8-1.8,1.7-1.8
			C282.7,303.5,283.5,304.3,283.5,305.3z"/>
		<path class="st77" d="M280.5,305.6c0-0.1,0-0.2,0-0.3c0-0.2,0-0.3,0.1-0.5"/>
		<path class="st77" d="M281.5,306.6c-0.3-0.1-0.6-0.2-0.8-0.5"/>
		<path class="st77" d="M282.6,306.3c-0.2,0.1-0.4,0.3-0.6,0.3"/>
		<path class="st77" d="M283,305.3c0,0.2-0.1,0.5-0.2,0.7"/>
		<path class="st72" d="M282.3,305.3c0,0.3-0.3,0.6-0.6,0.6c-0.3,0-0.6-0.3-0.6-0.6c0-0.3,0.3-0.6,0.6-0.6
			C282.1,304.7,282.3,305,282.3,305.3z"/>
		<ellipse class="st78" cx="281.8" cy="305.3" rx="0.7" ry="0.7"/>
	</g>
	<g>
		<g>
			<polygon class="st67" points="315.4,284.9 312.6,296.4 301.1,293.5 303.9,282 			"/>
			<polygon class="st63" points="315.4,284.9 314.9,287 303.3,284.1 303.9,282 			"/>
			<polygon class="st67" points="315,286.7 303.1,283.7 303.6,281.7 315.5,284.7 			"/>
			<polygon class="st64" points="310.6,283.4 309.8,286.9 309.6,286.5 309.3,286.8 309.2,286.4 308.9,286.7 308.8,286.3 
				308.5,286.6 308.3,286.2 308,286.5 308.9,283 			"/>
		</g>
		<g>
			<polygon class="st67" points="311.9,296.4 309.1,307.9 297.6,305 300.4,293.5 			"/>
			<polygon class="st63" points="311.9,296.4 311.4,298.5 299.9,295.6 300.4,293.5 			"/>
			<polygon class="st67" points="311.5,298.3 299.6,295.3 300.1,293.2 312.1,296.2 			"/>
			<polygon class="st62" points="307.1,295 306.3,298.4 306.1,298 305.8,298.3 305.7,297.9 305.4,298.2 305.3,297.8 305,298.1 
				304.8,297.7 304.5,298 305.4,294.5 			"/>
		</g>
		<g>
			<g>
				<polygon class="st63" points="321.4,298.8 318.6,310.3 307.1,307.4 309.8,295.9 				"/>
				<polygon class="st63" points="321.4,298.8 320.9,300.9 309.3,298 309.8,295.9 				"/>
				<polygon class="st63" points="321,300.7 309.1,297.7 309.6,295.6 321.5,298.6 				"/>
				<polygon class="st63" points="316.6,297.3 315.8,300.8 315.6,300.4 315.3,300.7 315.2,300.3 314.9,300.6 314.8,300.2 
					314.5,300.5 314.3,300.1 314,300.4 314.9,296.9 				"/>
			</g>
			<g>
				<polygon class="st62" points="322.1,299 319.3,310.5 307.8,307.6 310.5,296.1 				"/>
				<polygon class="st63" points="322.1,299 321.6,301.1 310,298.2 310.5,296.1 				"/>
				<polygon class="st62" points="321.7,300.8 309.8,297.8 310.3,295.8 322.2,298.8 				"/>
				<polygon class="st64" points="317.3,297.5 316.5,301 316.3,300.6 316,300.9 315.9,300.5 315.6,300.8 315.5,300.4 315.2,300.7 
					315,300.3 314.7,300.6 315.6,297.1 				"/>
			</g>
		</g>
	</g>
	<g class="st79">
		<path class="st80" d="M264,298.4h-0.4c-0.7,0-1.3-0.6-1.3-1.3v-20.7c0-0.7,0.6-1.3,1.3-1.3h0.4c0.7,0,1.3,0.6,1.3,1.3v20.7
			C265.3,297.8,264.7,298.4,264,298.4z"/>
		<path class="st80" d="M269.8,298.4h-0.4c-0.7,0-1.3-0.6-1.3-1.3v-20.7c0-0.7,0.6-1.3,1.3-1.3h0.4c0.7,0,1.3,0.6,1.3,1.3v20.7
			C271,297.8,270.5,298.4,269.8,298.4z"/>
		<path class="st80" d="M275.5,298.4h-0.4c-0.7,0-1.3-0.6-1.3-1.3v-20.7c0-0.7,0.6-1.3,1.3-1.3h0.4c0.7,0,1.3,0.6,1.3,1.3v20.7
			C276.8,297.8,276.2,298.4,275.5,298.4z"/>
		<path class="st80" d="M281.2,298.4h-0.4c-0.7,0-1.3-0.6-1.3-1.3v-20.7c0-0.7,0.6-1.3,1.3-1.3h0.4c0.7,0,1.3,0.6,1.3,1.3v20.7
			C282.5,297.8,281.9,298.4,281.2,298.4z"/>
		<path class="st80" d="M287,298.4h-0.4c-0.7,0-1.3-0.6-1.3-1.3v-20.7c0-0.7,0.6-1.3,1.3-1.3h0.4c0.7,0,1.3,0.6,1.3,1.3v20.7
			C288.2,297.8,287.7,298.4,287,298.4z"/>
	</g>
	<g>
		<g>
			<g>
				<polygon class="st63" points="282.2,292.7 282.2,298.1 281.9,297.6 281.7,298.1 281.4,297.6 281.1,298.1 280.9,297.6 
					280.6,298.1 280.3,297.6 280.1,298.1 280,292.7 				"/>
			</g>
			<g>
				
					<rect x="274.7" y="293.1" transform="matrix(1 -1.117750e-03 1.117750e-03 1 -0.3374 0.3153)" class="st67" width="14.5" height="17.9"/>
				
					<rect x="274.7" y="293.1" transform="matrix(1 -1.117519e-03 1.117519e-03 1 -0.3292 0.3152)" class="st63" width="14.5" height="3.2"/>
				
					<rect x="274.3" y="292.7" transform="matrix(1 -1.155992e-03 1.155992e-03 1 -0.3401 0.326)" class="st67" width="15" height="3.2"/>
				<polygon class="st62" points="283.1,292.7 283.1,298.1 282.8,297.6 282.6,298.1 282.3,297.6 282,298.1 281.7,297.6 281.5,298.1 
					281.2,297.6 280.9,298.1 280.9,292.7 				"/>
			</g>
		</g>
		<g>
			<g>
				
					<rect x="266.5" y="300.3" transform="matrix(1.114718e-03 -1 1 1.114718e-03 -34.1615 576.9896)" class="st63" width="10.5" height="10.6"/>
				
					<rect x="270.8" y="296" transform="matrix(1.118506e-03 -1 1 1.118506e-03 -29.8423 572.6826)" class="st63" width="1.9" height="10.6"/>
				
					<rect x="266.4" y="300.1" transform="matrix(-1 -1.158978e-03 1.158978e-03 -1 543.3085 602.4401)" class="st63" width="10.9" height="1.9"/>
				<polygon class="st63" points="270.9,300.1 270.9,303.3 271.1,303 271.3,303.3 271.5,303 271.7,303.3 271.9,303 272.1,303.3 
					272.3,303 272.5,303.3 272.5,300.1 				"/>
			</g>
			<g>
				
					<rect x="265.8" y="300.3" transform="matrix(1.118846e-03 -1 1 1.118846e-03 -34.8029 576.3458)" class="st62" width="10.5" height="10.6"/>
				
					<rect x="270.1" y="296" transform="matrix(1.118506e-03 -1 1 1.118506e-03 -30.4825 572.0402)" class="st63" width="1.9" height="10.6"/>
				
					<rect x="265.7" y="300.1" transform="matrix(-1 -1.154925e-03 1.154925e-03 -1 542.0262 602.4368)" class="st62" width="10.9" height="1.9"/>
				<polygon class="st64" points="270.3,300.1 270.2,303.3 270.4,303 270.6,303.3 270.8,303 271,303.3 271.2,303 271.4,303.3 
					271.6,303 271.8,303.3 271.8,300.1 				"/>
			</g>
		</g>
	</g>
	<g>
		<path class="st48" d="M255.2,287.9v0.1H233c0.1,0,0.2,0,0.3-0.1c0,0,0,0,0,0l0-0.1H255.2z"/>
	</g>
	<g class="st59">
		<path class="st81" d="M239.3,285.8v2.7c0,0.3-0.4,0.5-0.6,0.2l-0.5-0.7c-0.4-0.6-0.3-1.3,0.1-1.9l0.4-0.5
			C238.8,285.3,239.3,285.5,239.3,285.8z"/>
		<g class="st65">
			<path class="st82" d="M237,289.2h-1.1c-0.4,0-0.7-0.3-0.7-0.7l0,0c0-0.4,0.3-0.7,0.7-0.7h1.1c0.4,0,0.7,0.3,0.7,0.7l0,0
				C237.6,288.9,237.3,289.2,237,289.2z"/>
			<g>
				<g>
					<polygon class="st82" points="237.2,288.4 236.9,287.9 238.8,286.6 239.1,287.2 					"/>
				</g>
				<path class="st83" d="M237.6,288.7c0,0.1-0.1,0.2-0.2,0.3c-0.1,0.1-0.3,0.2-0.5,0.2h-1.1c-0.4,0-0.7-0.3-0.7-0.7
					c0-0.2,0.1-0.4,0.2-0.5c0,0,0.1-0.1,0.1-0.1c0,0.1,0,0.1,0,0.2c0,0.4,0.3,0.7,0.7,0.7h1.1C237.4,288.8,237.5,288.8,237.6,288.7z
					"/>
			</g>
		</g>
	</g>
	<g>
		<polygon class="st48" points="237.4,288.4 237.1,287.9 239,286.6 239.3,287.2 		"/>
	</g>
	<path class="st48" d="M239.5,285.8v2.7c0,0.3-0.4,0.5-0.6,0.2l-0.5-0.7c-0.4-0.6-0.3-1.3,0.1-1.9l0.4-0.5
		C239,285.3,239.5,285.5,239.5,285.8z"/>
	<path class="st47" d="M239.5,288.6c-0.1,0.3-0.4,0.4-0.6,0.1l-0.5-0.7c-0.4-0.6-0.3-1.3,0.1-1.9l0.4-0.5c0.1-0.1,0.1-0.1,0.2-0.1
		l-0.3,0.4c-0.4,0.5-0.4,1.3-0.1,1.9l0.5,0.7C239.2,288.5,239.4,288.6,239.5,288.6z"/>
	<path class="st48" d="M237.2,289.2h-1.1c-0.4,0-0.7-0.3-0.7-0.7l0,0c0-0.4,0.3-0.7,0.7-0.7h1.1c0.4,0,0.7,0.3,0.7,0.7l0,0
		C237.8,288.9,237.5,289.2,237.2,289.2z"/>
	<path class="st47" d="M237.8,288.7c0,0.1-0.1,0.2-0.2,0.3c-0.1,0.1-0.3,0.2-0.5,0.2h-1.1c-0.4,0-0.7-0.3-0.7-0.7
		c0-0.2,0.1-0.4,0.2-0.5c0,0,0.1-0.1,0.1-0.1c0,0.1,0,0.1,0,0.2c0,0.4,0.3,0.7,0.7,0.7h1.1C237.6,288.8,237.7,288.8,237.8,288.7z"/>
	<g>
		<path class="st84" d="M336.4,281.3c-0.5,1-0.6,3.1-1.1,4.1c-0.3,0.5-2.2,3.3-3.7,4.6c-0.2-0.5-1.2,0.1-0.9-0.4
			c0.9-1.3,2.7-2.9,2.9-5c0.2-1.4,1.2-4.7,1.2-4.7"/>
	</g>
	<g>
		<g>
			<path class="st85" d="M340.8,311.7c0.6-0.1,1.3-0.4,1.6-0.4c0.2,0,0.9-0.2,1-0.2c0.2-0.1-0.1-1.1-0.4-1.2c0,0,0,0-0.1,0.1
				c-0.1,0.1-0.4,0.2-0.7,0.2c-0.4,0.4-0.4,0.5-0.9,0.8c-0.2,0.1-0.4,0.3-0.6,0.5C340.5,311.6,340.4,311.7,340.8,311.7z"/>
		</g>
		<path class="st86" d="M342.8,309.4c0,0,0.1,0.4,0.2,0.5c-0.5,0.6-0.9,0.3-0.9,0.3l0-0.1l-0.1-0.6L342.8,309.4z"/>
	</g>
	<g>
		<g>
			<path class="st85" d="M331.6,311.4c0.6,0.2,1.3,0,1.6,0.1c0.2,0.1,0.9,0.1,1.1,0.1c0.2,0,0.2-1.1,0-1.2c0,0-0.1,0-0.2,0
				c-0.2,0-0.4,0-0.7-0.1c-0.5,0.2-0.5,0.3-1.1,0.5c-0.2,0.1-0.5,0.1-0.7,0.3C331.4,311.2,331.3,311.3,331.6,311.4z"/>
		</g>
		<path class="st86" d="M334.3,309.9c0,0,0,0.5,0,0.6c-0.7,0.4-1,0-1,0l0-0.1l0.1-0.6L334.3,309.9z"/>
	</g>
	<path class="st48" d="M340,292.4c0,0,1.3-2.8-0.6-5c0,0-1.8,0.7-3.2,0.7c-1.1,0-1.7-0.1-1.7-0.1s-0.4,2.1-0.4,5.3L340,292.4z"/>
	<path class="st48" d="M335.8,301.9C335.8,301.9,335.8,301.9,335.8,301.9c0,2.8-1,6.4-1.3,8.4c0,0-0.1,0-0.1,0
		c-0.7,0-1.1-0.2-1.1-0.2l0-0.2c0.2-3.3,0.2-8.6,0.2-10.3c0-0.1,0-0.2,0-0.3c0.2-1.2,1.4-1,1.9,0.2c0.1,0.2,0.1,0.4,0.2,0.6
		c0,0.1,0,0.2,0.1,0.3v0c0.1,0.3,0.1,0.6,0.1,0.9v0c0,0.1,0,0.2,0,0.3v0C335.8,301.7,335.8,301.8,335.8,301.9z"/>
	<path class="st48" d="M337.7,293.5c0,0,0,0.1,0,0.1c-0.3,1.2-1.1,4-1.7,5.7l0,0c0,0,0,0,0,0c-0.1,0.4-0.2,0.7-0.3,1v0
		c0,0.1-0.2,0.2-0.3,0.3c-0.1,0-0.2,0.1-0.2,0.1c-0.6,0.1-1.6-0.2-1.6-1.5c0-0.1,0-0.3,0-0.5c0.1-1,0.7-6.8,0.8-7.3
		c0.1-0.6,0.2-1.4,0.5-1.4C336.3,289.6,338.2,291.5,337.7,293.5z"/>
	<path class="st85" d="M335.7,299.9l0.3-0.5c0,0,0,0,0,0c0,0.1-0.2,1-0.2,1.9v0c0,0.1,0,0.2,0,0.3v0c0,0.2,0,0.2,0,0.3c0,0,0,0,0,0
		c-0.1,0.2-0.4-1-0.4-1.2c0,0,0-0.1,0-0.1l0.3-0.5L335.7,299.9z"/>
	<path class="st47" d="M337.7,293.6c-0.3,1.2-1.1,4-1.7,5.7c0,0,0,0,0,0c0,0,0,0,0,0c0,0.1-0.2,1-0.2,1.9v0c0,0.1,0,0.2,0,0.3v0
		c0,0.1,0,0.2,0,0.3c0,0,0,0,0,0c0,2.8-1,6.4-1.3,8.4c0,0-0.1,0-0.1,0c0,0,0.4-3.3,0.8-5.6c0.3-1.8,0-3.3-0.1-3.9
		c0-0.2-0.1-0.3-0.1-0.3l0.4-1c0.5-1.3,0.7-4.3,0.7-4.3c-0.8-2.2-0.8-4.9-0.8-4.9l0.8,0.2l1.4,1.9L337.7,293.6z"/>
	<path class="st48" d="M340.2,299.7c-0.9-1-2.3-0.6-1.8,0.8c0.6,1.6,2.4,6,3.3,9.1l0.1,0.2c0,0,0.5-0.1,1.2-0.3
		c-0.4-2-0.6-5.5-1.6-7.9C341.2,300.8,340.7,300.2,340.2,299.7z"/>
	<g>
		<g>
			<path class="st48" d="M335.3,290.2c0-2.3,2.7-0.6,4,0.2c0.5,0.4,0.7,1,0.8,1.6c0,0.6,0.4,6.8,0.5,8c0.2,2.6-1.9,1-2.1,0.3
				C338,298.5,335.3,291.4,335.3,290.2z"/>
		</g>
	</g>
	<path class="st48" d="M340.4,298.4c0,0,0,1.2,0.9,2.8c0,0-1.6-0.9-1.7-1c-0.1-0.1-0.3-1.3-0.2-1.4
		C339.4,298.7,340.4,298.4,340.4,298.4z"/>
	<path class="st86" d="M333.8,272.3c0,0-0.4,4.1,2.6,3.2c0.2,0,1.1-0.2,1.2-1.5c0.1-1.2-0.6-2.6-0.6-2.6c-0.1,0-2-0.1-2.1-0.1
		C334.9,271.4,333.8,272.3,333.8,272.3z"/>
	<path class="st87" d="M336.4,273.4c0,0-0.5-0.2-0.3-0.9c0.1-0.7,0-0.7-0.4-0.4c-0.5,0.3-2.8,1.6-2.4-1.5c0.3,0.2,1.1,0.1,1.3-0.2
		s2.2-1.4,2.9,0.1c0.5,0,1.1,0.6,1.1,1.8c-0.1,1.2-0.5,2.8-0.9,2.8c-0.4,0.1-0.7-0.3-0.7-0.8c0-0.3,0.9-0.7,0.3-1.6
		C336.9,272.4,336.1,272.7,336.4,273.4z"/>
	<path class="st86" d="M336.9,275.2c0,0-0.1,0.9,0.2,1.2c-0.6,0.5-1.8,0.4-1.8,0.4s0.4-0.4,0-1.6C335,274,336.9,275.2,336.9,275.2z"
		/>
	<path class="st5" d="M333.5,281.9c0,0,0.8,0.7,1.5,0.7l-0.3-3.7l-0.3,0.9L333.5,281.9z"/>
	<path class="st88" d="M333.5,281.9c0,0,0.8,0.7,1.5,0.7l-0.2-3.8l-0.1,0c-0.2,0.5-0.4,1.5-0.4,2.5c0,0.1,0,0.5,0,0.7
		C334.2,282.2,333.8,282,333.5,281.9z"/>
	<path class="st5" d="M334.1,287.8c0,0,0,0,0.1,0c0.5,0.2,2.6,0.9,5.2-0.5c0.3-0.2,0.3-0.2,0.3-0.2s-0.4-1-0.5-3.8
		c-0.1-2.8,0-3.2-0.5-4.6c-0.4-1.2-1.7-2.7-1.7-2.7s-1.2,0.8-1.7,0.8c-0.6,1.4-1.2,3.2-0.9,4.5c0.1,0.9,0,3.4-0.1,5
		C334.2,287.2,334.1,287.8,334.1,287.8z"/>
	<path class="st88" d="M334.1,287.8c0,0,0,0,0.1,0c1.1-0.9,2.6-2.2,3-2.7c0.5-0.7,0.6-1.8,0.7-2.3c0.1,0,0.2,0,0.2,0
		c0.4-2-0.2-3.7-0.2-3.7l-2,0.8l-0.8,2.3c0,0,0.6,0.3,1,0.4c-0.1,0.7-0.2,1.9-0.3,2.1c-0.1,0.2-0.8,1-1.5,1.7
		C334.2,287.2,334.1,287.8,334.1,287.8z"/>
	<path class="st89" d="M332.6,283.6"/>
	<g>
		<g>
			
				<rect x="326.5" y="283.4" transform="matrix(1.117723e-03 -1 1 1.117723e-03 42.7809 616.7208)" class="st62" width="7.1" height="7.1"/>
			
				<rect x="329.5" y="280.5" transform="matrix(1.114381e-03 -1 1 1.114381e-03 45.7023 613.8113)" class="st63" width="1.3" height="7.1"/>
			
				<rect x="326.5" y="283.2" transform="matrix(-1 -1.157042e-03 1.157042e-03 -1 659.9885 568.1471)" class="st62" width="7.4" height="1.3"/>
			<polygon class="st64" points="329.5,283.2 329.5,285.4 329.7,285.2 329.8,285.4 329.9,285.2 330.1,285.4 330.2,285.2 
				330.3,285.4 330.5,285.2 330.6,285.4 330.6,283.2 			"/>
		</g>
	</g>
	<g>
		<g>
			<path class="st86" d="M332,289.8c0,0.2-0.4,0.8-0.7,0.9c-0.1,0-0.2,0-0.3,0c-0.1,0.1-0.6,0.1-0.4-0.2c-0.3,0.2-0.6,0.2-1,0.2
				c-0.1,0-0.1-0.1,0.1-0.2c0.4-0.1,0.6-0.3,0.8-0.7c-0.1,0-0.1,0-0.2,0.1c-0.2,0-0.3-0.1-0.3-0.1c0-0.1,0.2-0.1,0.2-0.1
				c0.2-0.1,0.3-0.2,0.5-0.3c0.2-0.1,0.3-0.2,0.5-0.2c0,0,0.4,0,0.3,0.2"/>
		</g>
		<path class="st86" d="M337.9,281.5c-0.4,0.9-1.6,3.8-1.8,4.2c-0.7,1.3-4.2,4.2-4.2,4.2s-0.6-0.1-0.6-0.7c1-0.7,2.9-3.7,3.3-4.1
			c0.3-0.2,1.4-4.9,1.4-4.9"/>
	</g>
	<path class="st5" d="M337.9,279.1c0,0,0.4,1.6,0,3.5c-1.6,0.1-2.8-0.3-2.8-0.3l0.5-2.6"/>
	<g>
		<g>
			<path class="st84" d="M262.6,291.6c0.6,0.7,1.1,2.5,1.8,3.2c0.3,0.4,2.6,2.3,4.1,3.1c0.1-0.5,1-0.2,0.7-0.5
				c-1.1-0.9-2.9-1.9-3.5-3.7c-0.4-1.2-1.9-3.7-1.9-3.7"/>
		</g>
		<g>
			<g>
				
					<rect x="266.4" y="292" transform="matrix(1 -1.116099e-03 1.116099e-03 1 -0.3292 0.301)" class="st67" width="6.3" height="6.2"/>
				
					<rect x="266.4" y="292" transform="matrix(1 -1.118464e-03 1.118464e-03 1 -0.3271 0.3016)" class="st63" width="6.3" height="1.1"/>
				
					<rect x="266.2" y="291.9" transform="matrix(1 -1.157127e-03 1.157127e-03 1 -0.3382 0.312)" class="st67" width="6.5" height="1.1"/>
				<polygon class="st62" points="270,291.9 270,293.7 269.9,293.6 269.8,293.7 269.7,293.6 269.6,293.8 269.4,293.6 269.3,293.8 
					269.2,293.6 269.1,293.8 269.1,291.9 				"/>
			</g>
		</g>
		<g>
			<path class="st90" d="M260,316.5c0,0-0.2,1.3-0.2,1.4c0.1,0.2,0.3,0.6,0.6,0.8c0.3,0.2,0.9,0.4,0.9,0.4c0,0.1,0.1,0.2,0,0.3
				c-0.2,0.2-0.6,0.3-0.8,0.2c-0.8-0.1-0.9-0.5-1.4-0.5c-0.1,0-0.2,0.1-0.5,0s-0.3-0.3-0.3-0.5c0-0.3,0.2-0.6,0.3-0.9
				c0.1-0.3,0.2-1.4,0.2-1.4"/>
			<path class="st91" d="M261.8,295.6l-3.2,0.1c0,0-1.3,1.8-0.7,3.5c0.3,0.8,0.6,1.3,0.7,1.7c0.1,0.4,1.1,5.7,1,6.1
				c-0.1,0.4-0.5,1.5-0.6,2.6c-0.2,1.4,0,5.9-0.2,7.1c0.4,0.2,0.8,0.2,1.1,0.2c0.4-3.5,1.5-8.1,1.7-9.8
				C261.7,305.3,262,299.8,261.8,295.6z"/>
			<g>
				<path class="st92" d="M261.5,301.3c0,0-2.2-4.8-2.7-3.8c-0.7,1.8,0.7,2.7,0.7,2.7c0.5,0.9,1.7,5.8,1.8,6.9c0,0.5,0,1.1,0,1.6
					c0,0,0,0.1,0,0.2c0.1-0.8,0.2-1.5,0.3-2C261.7,305.7,261.6,303.8,261.5,301.3C261.5,301.3,261.5,301.3,261.5,301.3z"/>
			</g>
			<path class="st87" d="M261.4,319.4c0.1-0.1,0.1-0.3,0-0.3c-0.1-0.1-0.4-0.2-0.5-0.3c-0.2-0.1-0.4-0.1-0.3-0.1
				c0.1,0-0.1,0.2-0.2,0.2c-0.5,0-0.9-0.4-1.2-0.4c-0.4-0.1-0.6-0.6-0.6-0.7c-0.1,0.1-0.3,0.5-0.3,0.6c0,0.1-0.1,0.3-0.1,0.4
				c0,0.1,0.1,0.2,0.1,0.4c0,0,0.1,0.1,0.3,0.1c0.1,0,0.3,0,0.3,0l0-0.3c0,0,0.1,0,0.3,0s0.4,0.2,0.4,0.2c0.1,0.1,0.1,0.2,0.2,0.2
				c0.2,0.1,0.4,0.1,0.7,0.2C260.9,319.8,261.3,319.6,261.4,319.4z"/>
		</g>
		<g>
			<path class="st90" d="M262.6,317c0.4,0,0.7,0,1,0c0,0.6,0.1,1.1,0.1,1.2c0.1,0.2,0.4,0.6,0.7,0.7c0.3,0.1,1,0.2,1,0.3
				c0.1,0.1,0.1,0.2,0,0.3c-0.2,0.2-0.6,0.4-0.8,0.4c-0.9,0-1-0.3-1.5-0.3c-0.1,0-0.2,0.2-0.5,0.1c-0.2-0.1-0.4-0.3-0.4-0.5
				c0-0.3,0.2-0.7,0.3-0.9C262.6,318.1,262.6,317.1,262.6,317z"/>
			<path class="st91" d="M259.4,295.2l3.2,0.9c1,4,1.7,8.4,1.6,10.9c-0.1,1.4-0.4,7.4-0.5,9.9c0,0.1,0,0.1,0,0.2c-0.4,0-0.7,0-1.1,0
				c0,0,0-0.1,0-0.1c-0.1-1.5-0.7-5.4-0.7-6.7c0-1.5,0.4-2.9,0.4-2.9s-2.2-6.4-2.3-6.8c-0.1-0.4-1-0.5-1.2-1.6
				C258.4,297.1,259.4,295.2,259.4,295.2z"/>
			<path class="st87" d="M265.6,319.5c0-0.1,0-0.3,0-0.3c-0.1,0-0.4-0.2-0.6-0.2c-0.2,0-0.4-0.1-0.3,0c0.1,0,0,0.2-0.2,0.3
				c-0.5,0.1-1-0.2-1.3-0.2c-0.4,0-0.6-0.5-0.6-0.6c-0.1,0.1-0.3,0.5-0.3,0.6c0,0.1,0,0.3,0,0.4c0,0.1,0.1,0.2,0.1,0.4
				c0,0,0.1,0,0.3,0.1c0.1,0,0.3-0.1,0.3-0.1l0-0.3c0,0,0.1,0,0.3,0c0.2,0,0.3,0.1,0.4,0.2c0.1,0.1,0.2,0.1,0.2,0.2
				c0.2,0.1,0.4,0.1,0.7,0C265.2,319.9,265.5,319.7,265.6,319.5z"/>
		</g>
		<g>
			<path class="st5" d="M262.4,286.9c0.2,0.1,0.1,0.6,0.4,0.7c0.2,0.1,0.5,0,0.6,0.1c0.8,0.4,0.6,1.3,0.7,2.4
				c0.3,0.8,0.4,1.6,0.2,2.1c-0.3,0.6-0.7,0.8-1.1,1.2c-0.3,0.4-0.4,1.1-0.4,1.9c0,0.1,0.1,0.4,0.1,0.5c-0.1,0.3-0.4,0.3-0.9,0.4
				c-1,0-2.5-0.3-2.9-0.3c-0.4,0-0.8-0.2-0.8-0.4c0-0.2,0.2-0.2,0.3-0.6c0.1-0.7,0.2-2.6,0.3-3.2c0.3-1.6,0.5-2.8,1.1-4.3"/>
		</g>
		<g class="st65">
			<path class="st93" d="M264.6,290.7c-0.2-0.4-0.6-0.8-0.9-1.2l-0.8,0.4c0.4,0.8,0.5,1.7,0.7,2.5c0.2,0,0.5-0.1,0.5-0.1
				c0.1-0.1,0.1-0.1,0.2-0.3C264.4,291.8,264.6,291.3,264.6,290.7z"/>
		</g>
		<path class="st90" d="M265.2,284.7c0.1-0.4,0.1-0.8,0.1-1.1c0-0.6-0.1-1.6-1.2-1.9c-1-0.4-2.2-0.1-2.5,0.6
			c-0.3,0.8-0.2,1.9-0.3,2.5c0,0.6-0.5,1.4-0.5,1.4l2.3,1c0,0,0.4-0.8,0.5-0.9c0.2-0.1,0.2,0.3,0.7,0.2c0.2,0,0.4-0.4,0.6-0.9
			c0,0,0,0,0,0c0.1,0,0.2,0,0.3,0c0.2,0,0.1-0.1,0.1-0.2C265.2,285.1,265.2,284.9,265.2,284.7z"/>
		<g>
			<path class="st90" d="M268.4,297.7c0,0.2,0.4,0.7,0.6,0.8c0.1,0,0.2,0,0.3,0c0.1,0.1,0.5,0.1,0.4-0.1c0.2,0.2,0.5,0.2,0.8,0.2
				c0.1,0,0.1-0.1-0.1-0.2c-0.3-0.1-0.5-0.3-0.7-0.6c0,0,0.1,0,0.2,0c0.1,0,0.2,0,0.2-0.1c0,0-0.2-0.1-0.2-0.1
				c-0.1-0.1-0.3-0.2-0.4-0.3c-0.2-0.1-0.3-0.2-0.5-0.2c0,0-0.3,0-0.3,0.1"/>
		</g>
		<path class="st90" d="M263.3,290.5c0.4,0.8,1.4,3.4,1.5,3.7c0.6,1.2,3.7,3.7,3.7,3.7s0.5-0.1,0.5-0.6c-0.9-0.6-2.6-3.2-2.9-3.6
			c-0.2-0.2-1.3-4.3-1.3-4.3"/>
		<path class="st5" d="M264.1,287.6c-0.9-0.3-1.7-0.3-2.3-1c-0.7,0.5,0.8,3.5,1.2,3.6c0.4,0.1,0.9,1.7,1,2c1.2,0,1.6-0.7,1.6-0.7
			C265,289.9,264.9,287.9,264.1,287.6z"/>
		<g>
			<path class="st87" d="M263.4,287.7c-0.1-0.2-0.2-0.4-0.3-0.6c0-0.2,0-0.5,0.1-0.7c0.1-0.1,0.2-0.2,0.3-0.3
				c0.5-0.4,0.6-0.7,0.5-1.3c-0.1-0.2-0.1-0.4-0.1-0.6c0-0.2,0-0.4,0.2-0.4c0.1,0,0.2,0,0.3,0.1c0,0.1,0,0.6,0.2,0.3
				c0.2-0.3,0.3-0.3,0.3-1c0-0.1,0-0.4,0-0.5c0.3,0.2,0.4,0.6,0.4,0.9c0.2-0.1,0.3-0.4,0.3-0.6c0-0.3,0-0.5-0.1-0.7
				c-0.4-0.9-0.9-1-1.2-1.2c-0.4-0.1-0.7-0.3-1.1-0.3c-0.4,0-0.9,0.1-1,0.4c-0.5-0.1-0.8,0.3-1,0.5c-0.2,0.2-0.3,0.5-0.4,0.8
				c-0.1,0.4-0.2,0.9-0.3,1.3c-0.1,0.4-0.2,0.7-0.5,1c-0.3,0.2-0.6,0.3-0.9,0.5c-0.4,0.3-0.6,0.7-0.5,1.2c0,0.5,0.3,0.9,0,1.4
				c-0.1,0.1-0.2,0.2-0.3,0.4c-0.2,0.3-0.2,0.8,0,1.1c0.2,0.3,0.6,0.7,0.9,0.8c0.4,0.1,0.6,0.2,1,0.1c0.6,0,1.2,0,1.9-0.6
				c0.4-0.3,0.1-0.5,0.5-0.9c0.2-0.2,0.5-0.3,0.7-0.6C263.4,288.2,263.4,287.9,263.4,287.7C263.4,287.7,263.4,287.7,263.4,287.7z"/>
		</g>
	</g>
	<g>
		<ellipse class="st94" cx="257.3" cy="242.7" rx="1.1" ry="1.2"/>
		<ellipse class="st94" cx="286.7" cy="201" rx="1.1" ry="1.2"/>
		<path class="st94" d="M348.6,203.9c0,0.3-0.2,0.5-0.5,0.5s-0.5-0.2-0.5-0.5c0-0.3,0.2-0.5,0.5-0.5S348.6,203.6,348.6,203.9z"/>
		<path class="st94" d="M238.6,249.7c0,0.3-0.2,0.5-0.5,0.5c-0.3,0-0.5-0.2-0.5-0.5c0-0.3,0.2-0.5,0.5-0.5
			C238.4,249.1,238.6,249.4,238.6,249.7z"/>
		<ellipse class="st94" cx="350" cy="227.9" rx="1.1" ry="1.2"/>
		<ellipse class="st94" cx="374.8" cy="267.2" rx="1.1" ry="1.2"/>
	</g>
	<g>
		<g>
			<line class="st95" x1="321.4" y1="203.5" x2="321.4" y2="205.3"/>
			<line class="st95" x1="322.2" y1="204.4" x2="320.6" y2="204.4"/>
		</g>
		<g>
			<line class="st95" x1="369.2" y1="218.7" x2="369.2" y2="220.4"/>
			<line class="st95" x1="370.1" y1="219.6" x2="368.4" y2="219.6"/>
		</g>
		<g>
			<line class="st95" x1="374.8" y1="282.3" x2="374.8" y2="284.1"/>
			<line class="st95" x1="375.6" y1="283.2" x2="373.9" y2="283.2"/>
		</g>
		<g>
			<line class="st95" x1="244.7" y1="222.7" x2="244.7" y2="224.4"/>
			<line class="st95" x1="245.6" y1="223.5" x2="243.9" y2="223.5"/>
		</g>
		<g>
			<line class="st95" x1="253" y1="266.4" x2="253" y2="268.1"/>
			<line class="st95" x1="253.9" y1="267.3" x2="252.2" y2="267.3"/>
		</g>
		<g>
			<line class="st95" x1="282.9" y1="220.9" x2="282.9" y2="222.6"/>
			<line class="st95" x1="283.7" y1="221.8" x2="282" y2="221.8"/>
		</g>
	</g>
	<g>
		<g>
			<g>
				<polygon class="st63" points="350.7,290.2 350.7,293.7 350.8,293.4 351,293.7 351.2,293.4 351.4,293.7 351.5,293.4 351.7,293.7 
					351.9,293.4 352.1,293.7 352.1,290.2 				"/>
			</g>
			<g>
				
					<rect x="345" y="291.5" transform="matrix(1.116712e-03 -1 1 1.116712e-03 54.1538 646.806)" class="st67" width="11.7" height="9.5"/>
				
					<rect x="349.8" y="286.8" transform="matrix(1.108907e-03 -1 1 1.108907e-03 58.9482 642.0326)" class="st63" width="2.1" height="9.5"/>
				
					<rect x="346" y="290.2" transform="matrix(-1 -1.158483e-03 1.158483e-03 -1 701.5142 582.945)" class="st67" width="9.8" height="2.1"/>
				<polygon class="st62" points="350.1,290.2 350.1,293.7 350.3,293.4 350.4,293.7 350.6,293.4 350.8,293.7 351,293.4 351.1,293.7 
					351.3,293.4 351.5,293.7 351.5,290.2 				"/>
			</g>
		</g>
		<g>
			<g>
				
					<rect x="354.1" y="295.3" transform="matrix(1 -1.116208e-03 1.116208e-03 1 -0.3332 0.3992)" class="st63" width="6.9" height="6.9"/>
				
					<rect x="354.1" y="295.3" transform="matrix(1 -1.112064e-03 1.112064e-03 1 -0.3288 0.3978)" class="st63" width="6.9" height="1.2"/>
				
					<rect x="353.9" y="295.1" transform="matrix(1 -1.158345e-03 1.158345e-03 1 -0.3423 0.4143)" class="st63" width="7.1" height="1.2"/>
				<polygon class="st63" points="358.1,295.1 358.1,297.2 357.9,297 357.8,297.2 357.7,297 357.6,297.2 357.4,297 357.3,297.2 
					357.2,297 357,297.2 357,295.1 				"/>
			</g>
			<g>
				
					<rect x="354.5" y="295.3" transform="matrix(1 -1.117020e-03 1.117020e-03 1 -0.3334 0.4)" class="st62" width="6.9" height="6.9"/>
				
					<rect x="354.5" y="295.3" transform="matrix(1 -1.116551e-03 1.116551e-03 1 -0.3301 0.3998)" class="st63" width="6.9" height="1.2"/>
				
					<rect x="354.3" y="295.1" transform="matrix(1 -1.158345e-03 1.158345e-03 1 -0.3423 0.4147)" class="st62" width="7.1" height="1.2"/>
				<polygon class="st64" points="358.5,295.1 358.5,297.2 358.4,297 358.2,297.2 358.1,297 358,297.2 357.8,297 357.7,297.2 
					357.6,297 357.5,297.2 357.5,295.1 				"/>
			</g>
		</g>
	</g>
	<rect x="250.2" y="205.1" class="st48" width="1.1" height="3.5"/>
	<rect x="274.7" y="205.1" class="st48" width="1.1" height="3.5"/>
	<path class="st47" d="M265,208.2h-4.5c-0.7,0-1.3-0.6-1.3-1.3v-0.5c0-0.7,0.6-1.3,1.3-1.3h4.5c0.7,0,1.3,0.6,1.3,1.3v0.5
		C266.3,207.6,265.7,208.2,265,208.2z"/>
	<rect x="251.6" y="208.2" class="st47" width="22.8" height="0.7"/>
	<path class="st47" d="M250.7,213.2L250.7,213.2c-0.9,0-1.7-0.8-1.7-1.7v-2.2c0-0.9,0.7-1.7,1.7-1.7l0,0c0.9,0,1.7,0.8,1.7,1.7v2.2
		C252.4,212.4,251.7,213.2,250.7,213.2z"/>
	<rect x="244.1" y="204.2" class="st48" width="13.3" height="0.3"/>
	<path class="st47" d="M275.2,213.2L275.2,213.2c-0.9,0-1.7-0.8-1.7-1.7v-2.2c0-0.9,0.7-1.7,1.7-1.7l0,0c0.9,0,1.7,0.8,1.7,1.7v2.2
		C276.9,212.4,276.1,213.2,275.2,213.2z"/>
	<rect x="268.6" y="204.2" class="st48" width="13.3" height="0.3"/>
	<rect x="261.7" y="214.9" class="st47" width="2.3" height="1.2"/>
	<g>
		<g>
			
				<rect x="256.7" y="217.5" transform="matrix(1.116688e-03 -1 1 1.116688e-03 38.8597 485.9563)" class="st67" width="12" height="12"/>
			
				<rect x="261.6" y="212.6" transform="matrix(1.127339e-03 -1 1 1.127339e-03 43.7616 481.0657)" class="st63" width="2.2" height="12"/>
			
				<rect x="256.6" y="217.3" transform="matrix(-1 -1.156516e-03 1.156516e-03 -1 525.3174 437.0669)" class="st67" width="12.4" height="2.2"/>
			<polygon class="st62" points="261.7,217.3 261.7,220.9 261.9,220.6 262.2,220.9 262.4,220.6 262.6,220.9 262.8,220.6 
				263.1,220.9 263.3,220.6 263.5,220.9 263.5,217.3 			"/>
		</g>
	</g>
	<polyline class="st96" points="257.7,229.6 255.9,229.6 255.9,216.2 269.7,216.2 269.7,229.5 267.5,229.5 	"/>
	<path class="st53" d="M264.4,215.2h-2.8c-2,0-3.6-1.6-3.6-3.6v-1.3c0-2,1.6-3.6,3.6-3.6h2.8c2,0,3.6,1.6,3.6,3.6v1.3
		C268,213.6,266.4,215.2,264.4,215.2z"/>
	<path class="st48" d="M264.1,214.3h-2.2c-1.6,0-2.8-1.3-2.8-2.8v-1c0-1.6,1.3-2.8,2.8-2.8h2.2c1.6,0,2.8,1.3,2.8,2.8v1
		C266.9,213,265.6,214.3,264.1,214.3z"/>
	<rect x="250.5" y="204.5" class="st47" width="0.5" height="0.7"/>
	<path class="st52" d="M251.3,204.4c0,0.3-1.1,0.3-1.1,0s0.3-0.6,0.6-0.6S251.3,204.1,251.3,204.4z"/>
	<rect x="275" y="204.5" class="st47" width="0.5" height="0.7"/>
	<path class="st52" d="M275.8,204.4c0,0.3-1.1,0.3-1.1,0s0.3-0.6,0.6-0.6S275.8,204.1,275.8,204.4z"/>
	<polygon class="st5" points="120.6,191 107.2,191 113.9,179.4 120.6,167.8 127.3,179.4 134,191 	"/>
	<g>
		<polyline class="st97" points="118.5,171.4 120.6,167.8 122.7,171.4 		"/>
		<polyline class="st97" points="111.4,191 107.2,191 109.3,187.4 		"/>
		<polyline class="st97" points="129.8,191 134,191 131.9,187.4 		"/>
	</g>
	<text transform="matrix(1 0 0 1 116.9917 184.9629)" class="st98 st99 st100">S</text>
	<g>
		<g>
			<g>
				<path class="st101" d="M113.4,188.2c-0.1-0.2-0.2-0.5-0.5-0.5c-0.2,0-0.4,0.2-0.4,0.4c0,0.2,0.1,0.3,0.5,0.5
					c0.4,0.2,0.7,0.4,0.7,0.8c0,0.4-0.4,0.8-0.9,0.8c-0.2,0-0.5-0.1-0.6-0.1c0-0.1-0.1-0.5-0.1-0.7l0.1,0c0.1,0.2,0.3,0.7,0.7,0.7
					c0.2,0,0.4-0.1,0.4-0.4c0-0.2-0.1-0.3-0.5-0.5c-0.4-0.2-0.7-0.4-0.7-0.8c0-0.4,0.3-0.7,0.9-0.7c0.3,0,0.5,0.1,0.5,0.1
					c0,0.1,0,0.3,0.1,0.6L113.4,188.2z"/>
				<path class="st101" d="M116.8,187.8c-0.3,0-0.3,0.1-0.3,0.4v1.4c0,0.3,0,0.3,0.3,0.4v0.1h-1.2v-0.1c0.3,0,0.3,0,0.3-0.4v-0.7h-1
					v0.7c0,0.3,0,0.3,0.3,0.4v0.1h-1.2v-0.1c0.3,0,0.3,0,0.3-0.4v-1.4c0-0.3,0-0.3-0.3-0.4v-0.1h1.2v0.1c-0.3,0-0.3,0.1-0.3,0.4v0.5
					h1v-0.5c0-0.3,0-0.3-0.3-0.4v-0.1h1.2V187.8z"/>
				<path class="st101" d="M118.4,190.1v-0.1c0.2,0,0.2-0.1,0.2-0.2c0-0.1-0.1-0.3-0.2-0.4h-0.7c0,0.1-0.1,0.3-0.1,0.4
					c-0.1,0.2,0,0.3,0.3,0.3v0.1H117v-0.1c0.2,0,0.3-0.1,0.4-0.4l0.8-2l0.2,0c0.2,0.7,0.5,1.3,0.7,2c0.1,0.4,0.2,0.4,0.4,0.4v0.1
					H118.4z M118.1,188.3c-0.1,0.3-0.2,0.5-0.3,0.8h0.6L118.1,188.3z"/>
				<path class="st101" d="M119.8,190.1v-0.1c0.3,0,0.3,0,0.3-0.4v-1.4c0-0.3,0-0.3-0.3-0.4v-0.1h1.2v0.1c-0.3,0-0.3,0.1-0.3,0.4
					v1.4c0,0.3,0,0.3,0.3,0.4v0.1H119.8z"/>
				<path class="st101" d="M124,187.8c-0.2,0-0.3,0.1-0.3,0.3c0,0.1,0,0.3,0,0.6v1.5h-0.2l-1.6-1.9v0.9c0,0.3,0,0.5,0,0.6
					c0,0.2,0.1,0.3,0.4,0.3v0.1h-0.9v-0.1c0.2,0,0.3-0.1,0.3-0.3c0-0.1,0-0.3,0-0.6v-0.9c0-0.1,0-0.2-0.1-0.3
					c-0.1-0.1-0.2-0.1-0.3-0.1v-0.1h0.7l1.4,1.7v-0.7c0-0.3,0-0.5,0-0.6c0-0.2-0.1-0.2-0.4-0.3v-0.1h0.9V187.8z"/>
				<path class="st101" d="M126.5,189.4c0,0.1-0.1,0.5-0.2,0.6h-2v-0.1c0.3,0,0.4-0.1,0.4-0.4v-1.4c0-0.3,0-0.3-0.3-0.4v-0.1h1.2
					c0.4,0,0.5,0,0.6,0c0,0.1,0,0.4,0,0.6l-0.1,0c0-0.1-0.1-0.3-0.2-0.4c-0.1-0.1-0.1-0.1-0.3-0.1h-0.2c-0.1,0-0.2,0-0.2,0.1v0.8
					h0.4c0.2,0,0.2-0.1,0.3-0.3h0.1v0.8h-0.1c-0.1-0.3-0.1-0.3-0.3-0.3h-0.4v0.7c0,0.3,0,0.3,0.2,0.3h0.3c0.2,0,0.3,0,0.4-0.1
					c0.1-0.1,0.2-0.3,0.2-0.4L126.5,189.4z"/>
				<path class="st101" d="M128,190.1v-0.1c0.3,0,0.2-0.1,0.2-0.2c0-0.1-0.1-0.2-0.4-0.7c-0.2,0.3-0.3,0.5-0.4,0.6
					c-0.1,0.2-0.1,0.2,0.2,0.2v0.1h-0.9v-0.1c0.2,0,0.3-0.1,0.5-0.2c0.1-0.2,0.4-0.5,0.6-0.8c-0.2-0.3-0.3-0.6-0.5-0.9
					c-0.1-0.2-0.2-0.2-0.5-0.3v-0.1h1.2v0.1c-0.2,0-0.2,0.1-0.2,0.2c0.1,0.1,0.2,0.3,0.3,0.6c0.1-0.2,0.3-0.4,0.3-0.5
					c0.1-0.1,0-0.2-0.2-0.2v-0.1h0.9v0.1c-0.2,0-0.4,0.1-0.5,0.3c-0.1,0.2-0.3,0.4-0.5,0.6c0.2,0.3,0.4,0.6,0.6,1
					c0.2,0.2,0.2,0.3,0.5,0.3v0.1H128z"/>
			</g>
		</g>
	</g>
	<g>
		<text transform="matrix(1 0 0 1 208.7837 181.0488)" class="st102 st103 st104">Home</text>
		<text transform="matrix(1 0 0 1 237.311 181.0488)" class="st98 st103 st104">About Us</text>
		<text transform="matrix(1 0 0 1 273.1865 181.0488)" class="st98 st103 st104">Services</text>
		<text transform="matrix(1 0 0 1 307.0742 181.0488)" class="st98 st103 st104">Gallery</text>
		<text transform="matrix(1 0 0 1 344.4063 181.0488)" class="st98 st103 st104">Contact Us</text>
		<path class="st105" d="M371.8,185.3h-28.4c-2.8,0-5.1-2.3-5.1-5.1v-1.8c0-2.8,2.3-5.1,5.1-5.1h28.4c2.8,0,5.1,2.3,5.1,5.1v1.8
			C376.8,183,374.6,185.3,371.8,185.3z"/>
	</g>
	<text transform="matrix(1 0 0 1 107.8706 260.5498)" class="st98 st103 st106">DOMESTIC</text>
	<text transform="matrix(1 0 0 1 158.9263 260.6201)" class="st98 st103 st107">INTERNATIONAL</text>
	<path class="st108" d="M178.6,303.5h-49.2c-2.7,0-4.8-2.2-4.8-4.8V297c0-2.7,2.2-4.8,4.8-4.8h49.2c2.7,0,4.8,2.2,4.8,4.8v1.7
		C183.4,301.4,181.2,303.5,178.6,303.5z"/>
	<g>
		<text transform="matrix(1 0 0 1 129.4624 299.5029)" class="st109 st103 st104">Get Free Quotation</text>
	</g>
	<text transform="matrix(1 0 0 1 107.5063 240.2676)"><tspan x="0" y="0" class="st108 st110 st111">Moving</tspan><tspan x="43.7" y="0" class="st98 st110 st111">.</tspan><tspan x="47.1" y="0" class="st108 st110 st111"> Simplifed</tspan><tspan x="110.2" y="0" class="st98 st110 st111">.</tspan></text>
	<line class="st112" x1="155.8" y1="251.2" x2="151" y2="265.3"/>
</g>
<g id="DESIGNED_BY_FREEPIK">
</g>
</svg>
